<svg width="24" height="24" viewBox="0 0 24 24" fill="none" xmlns="http://www.w3.org/2000/svg">
<path d="M11.9658 1.99989C12.0166 2 12.0166 2 12.0686 2.0001C12.6176 2.00203 13.1525 2.03005 13.6936 2.12887C13.7288 2.13493 13.7639 2.14099 13.8001 2.14724C14.8314 2.32946 15.8062 2.69418 16.7308 3.18019C16.7586 3.19474 16.7865 3.20929 16.8152 3.22428C17.6386 3.65963 18.3609 4.24954 19.0281 4.89345C19.0648 4.92849 19.1014 4.96352 19.1391 4.99962C19.3678 5.22265 19.5707 5.46007 19.7679 5.71115C19.7987 5.74954 19.8296 5.78794 19.8613 5.8275C20.8838 7.12252 21.5081 8.61719 21.8316 10.2279C21.8423 10.28 21.8423 10.28 21.8531 10.3331C22.0588 11.3932 22.0456 12.6362 21.8316 13.6934C21.8191 13.7629 21.8067 13.8324 21.7942 13.9019C21.3654 16.171 20.0806 18.3471 18.2494 19.7677C18.2134 19.7969 18.1775 19.8262 18.1404 19.8564C17.4229 20.4298 16.1883 21.374 15.2276 21.3386C15.0695 21.3159 14.9889 21.2686 14.8618 21.1694C14.7351 20.9735 14.6591 20.7795 14.5904 20.5575C14.5798 20.5241 14.5692 20.4907 14.5582 20.4562C14.5228 20.3444 14.4879 20.2325 14.4529 20.1206C14.4276 20.0403 14.4023 19.96 14.3769 19.8797C14.3067 19.6572 14.237 19.4345 14.1673 19.2119C14.1205 19.0623 14.0736 18.9127 14.0267 18.7631C13.8934 18.3381 13.7601 17.9131 13.6278 17.4877C13.6197 17.4615 13.6115 17.4353 13.6031 17.4082C13.5362 17.1934 13.5362 17.1934 13.5055 17.0944C13.4113 16.7916 13.3162 16.4891 13.2194 16.187C13.1708 16.0354 13.1227 15.8837 13.0745 15.7319C13.0528 15.6638 13.0309 15.5959 13.0088 15.528C12.7449 14.7192 12.7449 14.7192 12.893 14.3845C13.0295 14.238 13.1819 14.1229 13.3432 14.0049C13.8536 13.63 14.2468 13.1374 14.379 12.5029C14.4695 11.7247 14.3482 11.0498 13.8743 10.4167C13.4758 9.95411 12.8921 9.61021 12.2755 9.55801C11.535 9.52898 10.8761 9.68715 10.3036 10.1817C9.84793 10.6285 9.561 11.2348 9.55338 11.8747C9.55833 12.5839 9.73984 13.1929 10.2397 13.7164C10.3928 13.8528 10.5566 13.9729 10.7255 14.089C10.8945 14.2061 11.0297 14.323 11.1237 14.5111C11.1719 14.8841 11.0541 15.218 10.9409 15.5668C10.9214 15.6286 10.9019 15.6904 10.8824 15.7523C10.83 15.9184 10.7769 16.0843 10.7236 16.2501C10.6681 16.4234 10.6133 16.5968 10.5584 16.7703C10.4792 17.0203 10.3998 17.2703 10.3201 17.5202C10.1888 17.9322 10.0591 18.3447 9.93048 18.7576C9.90071 18.8531 9.87092 18.9487 9.84111 19.0442C9.83148 19.0751 9.82185 19.106 9.81192 19.1378C9.8024 19.1683 9.79288 19.1988 9.78307 19.2303C9.72732 19.409 9.6716 19.5877 9.61603 19.7664C9.57292 19.9051 9.5296 20.0436 9.48613 20.1822C9.46296 20.2562 9.44001 20.3303 9.41706 20.4043C9.18677 21.1364 9.18677 21.1364 8.94323 21.2863C8.62292 21.393 8.34588 21.3112 8.05009 21.1743C8.01496 21.1586 7.97982 21.1429 7.94361 21.1267C6.51738 20.4793 5.19571 19.5346 4.23176 18.288C4.19218 18.2383 4.15258 18.1887 4.11297 18.139C3.14298 16.911 2.49986 15.4795 2.17536 13.9514C2.16397 13.898 2.16397 13.898 2.15236 13.8436C2.02861 13.2278 1.99763 12.6213 2.00014 11.9947C2.00022 11.9569 2.00031 11.9191 2.00039 11.8802C2.00238 11.322 2.01728 10.7765 2.12912 10.2279C2.13706 10.188 2.14501 10.148 2.15319 10.1069C2.45269 8.63505 3.02439 7.2723 3.92026 6.06159C3.94566 6.0271 3.94566 6.0271 3.97157 5.99192C4.25258 5.61405 4.56697 5.27093 4.8937 4.93239C4.92874 4.89575 4.96377 4.85911 4.99987 4.82136C5.2229 4.59266 5.46032 4.38978 5.71139 4.19257C5.74979 4.16175 5.78819 4.13094 5.82775 4.09918C7.07279 3.11617 8.55051 2.45761 10.1065 2.15564C10.136 2.14991 10.1655 2.14417 10.1959 2.13826C10.7841 2.03256 11.3693 1.99728 11.9658 1.99989Z" fill="#6E6F7A"/>
</svg>
