<svg width="20" height="20" viewBox="0 0 20 20" fill="none" xmlns="http://www.w3.org/2000/svg">
<circle cx="10" cy="10" r="10" fill="white"/>
<path d="M14.7544 13.4261L11.2676 9.97762L14.5893 6.40089C14.7517 6.22609 14.8295 6.00099 14.8056 5.7751C14.7816 5.54921 14.6579 5.34105 14.4616 5.1964C14.2653 5.05175 14.0125 4.98247 13.7588 5.00379C13.5051 5.02511 13.2713 5.13529 13.1089 5.3101L9.96962 8.69191L6.67481 5.43149C6.50447 5.2628 6.26586 5.16128 6.01147 5.14926C5.75707 5.13724 5.50773 5.21569 5.3183 5.36737C5.12886 5.51905 5.01485 5.73152 5.00135 5.95805C4.98785 6.18458 5.07596 6.4066 5.24629 6.57528L8.73311 10.0238L5.41334 13.6005C5.25115 13.7753 5.17359 14.0003 5.19771 14.2261C5.22184 14.4518 5.34567 14.6597 5.54198 14.8041C5.73829 14.9486 5.99099 15.0176 6.24448 14.9962C6.49798 14.9747 6.73151 14.8644 6.8937 14.6896L10.0311 11.3095L13.3278 14.575C13.418 14.664 13.5282 14.7351 13.6512 14.7837C13.7743 14.8323 13.9074 14.8573 14.042 14.8571C14.2273 14.8568 14.4086 14.8087 14.5638 14.7187C14.7191 14.6286 14.8418 14.5005 14.9171 14.3497C14.9924 14.199 15.0171 14.032 14.9883 13.8691C14.9594 13.7061 14.8782 13.554 14.7544 13.4312V13.4261Z" fill="#8A70FF"/>
</svg>
