<svg width="32" height="33" viewBox="0 0 32 33" fill="none" xmlns="http://www.w3.org/2000/svg">
<path d="M16 2.28223C8.26875 2.28223 2 8.71348 2 16.6385C2 22.9822 6.0125 28.3572 11.575 30.2572C11.653 30.2742 11.7327 30.2826 11.8125 30.2822C12.3313 30.2822 12.5312 29.901 12.5312 29.5697C12.5312 29.226 12.5188 28.326 12.5125 27.126C12.0494 27.2345 11.5756 27.2911 11.1 27.2947C8.40625 27.2947 7.79375 25.201 7.79375 25.201C7.15625 23.5447 6.2375 23.101 6.2375 23.101C5.01875 22.2447 6.23125 22.2197 6.325 22.2197H6.33125C7.7375 22.3447 8.475 23.7072 8.475 23.7072C9.175 24.9322 10.1125 25.276 10.95 25.276C11.5038 25.2649 12.049 25.1371 12.55 24.901C12.675 23.976 13.0375 23.3447 13.4375 22.9822C10.3313 22.6197 7.0625 21.3885 7.0625 15.8885C7.0625 14.3197 7.60625 13.0385 8.5 12.0385C8.35625 11.676 7.875 10.2135 8.6375 8.23848C8.73978 8.214 8.8449 8.20349 8.95 8.20723C9.45625 8.20723 10.6 8.40098 12.4875 9.71348C14.781 9.0718 17.2065 9.0718 19.5 9.71348C21.3875 8.40098 22.5312 8.20723 23.0375 8.20723C23.1426 8.20349 23.2477 8.214 23.35 8.23848C24.1125 10.2135 23.6312 11.676 23.4875 12.0385C24.3812 13.0447 24.925 14.326 24.925 15.8885C24.925 21.401 21.65 22.6135 18.5312 22.9697C19.0312 23.4135 19.4813 24.2885 19.4813 25.626C19.4813 27.5447 19.4625 29.0947 19.4625 29.5635C19.4625 29.901 19.6562 30.2822 20.175 30.2822C20.259 30.2826 20.3428 30.2742 20.425 30.2572C25.9937 28.3572 30 22.976 30 16.6385C30 8.71348 23.7313 2.28223 16 2.28223Z" fill="#222222"/>
</svg>
