<svg width="32" height="33" viewBox="0 0 32 33" fill="none" xmlns="http://www.w3.org/2000/svg">
<path d="M27.7606 2.28223H4.3925C3.11562 2.28223 2 3.20098 2 4.46285V27.8829C2 29.1516 3.11562 30.2822 4.3925 30.2822H27.7537C29.0375 30.2822 30 29.1441 30 27.8829V4.46285C30.0075 3.20098 29.0375 2.28223 27.7606 2.28223ZM10.6794 25.6216H6.66813V13.1497H10.6794V25.6216ZM8.8125 11.2535H8.78375C7.5 11.2535 6.66875 10.2979 6.66875 9.1016C6.66875 7.88348 7.52188 6.95035 8.83438 6.95035C10.1469 6.95035 10.95 7.8766 10.9788 9.1016C10.9781 10.2979 10.1469 11.2535 8.8125 11.2535ZM25.3394 25.6216H21.3281V18.8022C21.3281 17.1685 20.7444 16.0522 19.2931 16.0522C18.1844 16.0522 17.5281 16.8022 17.2362 17.5329C17.1269 17.7954 17.0975 18.1529 17.0975 18.5179V25.6216H13.0863V13.1497H17.0975V14.8854C17.6812 14.0541 18.5931 12.8579 20.715 12.8579C23.3481 12.8579 25.34 14.5935 25.34 18.3354L25.3394 25.6216Z" fill="#222222"/>
</svg>
