<svg width="24" height="24" viewBox="0 0 24 24" fill="none" xmlns="http://www.w3.org/2000/svg">
<path d="M9.21407 3.32157C9.58391 2.95173 10.1836 2.95173 10.5534 3.32157L19.0916 11.8598C19.4615 12.2297 19.4615 12.8293 19.0916 13.1992L10.5534 21.7374C10.1836 22.1072 9.58391 22.1072 9.21407 21.7374L0.675822 13.1992C0.305976 12.8293 0.305976 12.2297 0.675822 11.8598L9.21407 3.32157Z" fill="url(#paint0_linear_6303_26621)"/>
<path fill-rule="evenodd" clip-rule="evenodd" d="M14.3677 3.34004C14.2298 3.20221 14.0064 3.20221 13.8685 3.34004L5.9875 11.2211C5.84967 11.3589 5.84967 11.5824 5.9875 11.7202L13.8685 19.6012C14.0064 19.7391 14.2298 19.7391 14.3677 19.6012L22.2487 11.7202C22.3865 11.5824 22.3865 11.3589 22.2487 11.2211L14.3677 3.34004ZM14.7878 2.26274C14.4179 1.89289 13.8183 1.89289 13.4484 2.26274L4.9102 10.801C4.54035 11.1708 4.54035 11.7705 4.9102 12.1403L13.4484 20.6786C13.8183 21.0484 14.4179 21.0484 14.7878 20.6786L23.326 12.1403C23.6959 11.7705 23.6959 11.1708 23.326 10.801L14.7878 2.26274Z" fill="url(#paint1_linear_6303_26621)"/>
<defs>
<linearGradient id="paint0_linear_6303_26621" x1="0.398438" y1="12.5295" x2="19.369" y2="12.5295" gradientUnits="userSpaceOnUse">
<stop stop-color="#1677FF"/>
<stop offset="1" stop-color="#08C7E0"/>
</linearGradient>
<linearGradient id="paint1_linear_6303_26621" x1="4.63281" y1="11.4706" x2="23.6034" y2="11.4706" gradientUnits="userSpaceOnUse">
<stop stop-color="#D6E7FF"/>
<stop offset="1" stop-color="#D8F9FE"/>
</linearGradient>
</defs>
</svg>
