<svg width="24" height="24" viewBox="0 0 24 24" fill="none" xmlns="http://www.w3.org/2000/svg">
<path d="M1.19922 6.49821C1.19922 5.89163 1.69095 5.3999 2.29752 5.3999H16.3009C16.9075 5.3999 17.3992 5.89163 17.3992 6.49821V20.5016C17.3992 21.1082 16.9075 21.5999 16.3009 21.5999H2.29752C1.69095 21.5999 1.19922 21.1082 1.19922 20.5016V6.49821Z" fill="#1677FF"/>
<path fill-rule="evenodd" clip-rule="evenodd" d="M8.08271 3.51076C7.8782 3.51076 7.71242 3.67654 7.71242 3.88105V17.1188C7.71242 17.3233 7.8782 17.489 8.08271 17.489H21.3204C21.5249 17.489 21.6907 17.3233 21.6907 17.1188V3.88105C21.6907 3.67654 21.5249 3.51076 21.3204 3.51076H8.08271ZM7.69987 2.3999C7.09329 2.3999 6.60156 2.89163 6.60156 3.49821V17.5016C6.60156 18.1082 7.09329 18.5999 7.69987 18.5999H21.7033C22.3098 18.5999 22.8016 18.1082 22.8016 17.5016V3.49821C22.8016 2.89163 22.3098 2.3999 21.7033 2.3999H7.69987Z" fill="#99CDFF"/>
</svg>
