<svg width="24" height="24" viewBox="0 0 24 24" fill="none" xmlns="http://www.w3.org/2000/svg">
<path d="M9.08525 1.58096C9.44374 1.37471 9.88541 1.37471 10.2439 1.58096L18.4295 6.29054C18.788 6.49679 19.0088 6.87796 19.0088 7.29046V16.7096C19.0088 17.1221 18.788 17.5033 18.4295 17.7095L10.2439 22.4191C9.88541 22.6254 9.44374 22.6254 9.08525 22.4191L0.899632 17.7095C0.541148 17.5033 0.320312 17.1221 0.320312 16.7096V7.29046C0.320312 6.87796 0.541148 6.49679 0.899632 6.29054L9.08525 1.58096Z" fill="#A45CFF"/>
<path fill-rule="evenodd" clip-rule="evenodd" d="M14.5327 2.72228C14.4112 2.65239 14.2617 2.65239 14.1402 2.72228L6.36975 7.19301C6.24773 7.26322 6.17252 7.39327 6.17252 7.53404V16.466C6.17252 16.6068 6.24773 16.7369 6.36975 16.8071L14.1402 21.2778C14.2617 21.3477 14.4112 21.3477 14.5327 21.2778L22.3031 16.8071C22.4252 16.7369 22.5004 16.6068 22.5004 16.466V7.53404C22.5004 7.39327 22.4252 7.26322 22.3031 7.19301L14.5327 2.72228ZM14.9158 1.58096C14.5573 1.37471 14.1156 1.37471 13.7571 1.58096L5.57151 6.29054C5.21302 6.49679 4.99219 6.87796 4.99219 7.29046V16.7096C4.99219 17.1221 5.21302 17.5033 5.57151 17.7095L13.7571 22.4191C14.1156 22.6254 14.5573 22.6254 14.9158 22.4191L23.1014 17.7095C23.4599 17.5033 23.6807 17.1221 23.6807 16.7096V7.29046C23.6807 6.87796 23.4599 6.49679 23.1014 6.29054L14.9158 1.58096Z" fill="#DEB5FF"/>
</svg>
