<svg width="24" height="24" viewBox="0 0 24 24" fill="none" xmlns="http://www.w3.org/2000/svg">
<g clip-path="url(#clip0_6896_26935)">
<path fill-rule="evenodd" clip-rule="evenodd" d="M22.1953 11.278H15.6736C15.4599 11.278 15.2549 11.363 15.1038 11.5141C14.9526 11.6652 14.8677 11.8702 14.8677 12.084V15.5762H12.7187V7.78581C12.7187 7.57207 12.6338 7.36709 12.4826 7.21595C12.3315 7.06482 12.1265 6.97991 11.9128 6.97991H8.51007C8.29634 6.97991 8.09135 7.06482 7.94022 7.21595C7.78908 7.36709 7.70417 7.57207 7.70417 7.78581V11.278H1.77734C2.14505 5.96038 6.57525 1.76074 11.9863 1.76074C17.3974 1.76074 21.8276 5.96038 22.1953 11.278ZM22.1953 12.7108H16.3005V16.203C16.3005 16.4167 16.2155 16.6217 16.0644 16.7729C15.9133 16.924 15.7083 17.0089 15.4946 17.0089H12.0919C11.8781 17.0089 11.6731 16.924 11.522 16.7729C11.3709 16.6217 11.286 16.4167 11.286 16.203V8.41262H9.13689V11.9049C9.13689 12.1186 9.05198 12.3236 8.90084 12.4747C8.74971 12.6259 8.54472 12.7108 8.33098 12.7108H1.77734C2.14505 18.0284 6.57525 22.2281 11.9863 22.2281C17.3974 22.2281 21.8276 18.0284 22.1953 12.7108Z" fill="url(#paint0_linear_6896_26935)"/>
</g>
<defs>
<linearGradient id="paint0_linear_6896_26935" x1="1.77734" y1="1.76074" x2="20.8298" y2="20.1657" gradientUnits="userSpaceOnUse">
<stop stop-color="#207DFF"/>
<stop offset="1" stop-color="#9461FF"/>
</linearGradient>
<clipPath id="clip0_6896_26935">
<rect width="24" height="24" fill="white"/>
</clipPath>
</defs>
</svg>
