<svg width="24" height="24" viewBox="0 0 24 24" fill="none" xmlns="http://www.w3.org/2000/svg">
<path d="M16 5.87524C16 4.77067 16.8954 3.87524 18 3.87524H22C23.1046 3.87524 24 4.77067 24 5.87524V18.0002C24 19.1048 23.1046 20.0002 22 20.0002H18C16.8954 20.0002 16 19.1048 16 18.0002V5.87524Z" fill="#C966FF"/>
<path d="M0 5.87524C0 4.77067 0.895431 3.87524 2 3.87524H6C7.10457 3.87524 8 4.77067 8 5.87524V18.0002C8 19.1048 7.10457 20.0002 6 20.0002H2C0.895431 20.0002 0 19.1048 0 18.0002V5.87524Z" fill="#20BCFF"/>
<g style="mix-blend-mode:multiply">
<path d="M4 3.99976C4 2.89519 4.89543 1.99976 6 1.99976H10C11.1046 1.99976 12 2.89519 12 3.99976V19.9998C12 21.1043 11.1046 21.9998 10 21.9998H6C4.89543 21.9998 4 21.1043 4 19.9998V3.99976Z" fill="#307AFF"/>
</g>
<g style="mix-blend-mode:multiply">
<path d="M12 3.99976C12 2.89519 12.8954 1.99976 14 1.99976H18C19.1046 1.99976 20 2.89519 20 3.99976V19.9998C20 21.1043 19.1046 21.9998 18 21.9998H14C12.8954 21.9998 12 21.1043 12 19.9998V3.99976Z" fill="#AD66FF"/>
</g>
<g style="mix-blend-mode:multiply">
<path d="M8 2C8 0.895431 8.89543 0 10 0H14C15.1046 0 16 0.89543 16 2V22C16 23.1046 15.1046 24 14 24H10C8.89543 24 8 23.1046 8 22V2Z" fill="#8266FF"/>
</g>
</svg>
