<svg width="24" height="24" viewBox="0 0 24 24" fill="none" xmlns="http://www.w3.org/2000/svg">
<path d="M0.539062 13.1066C0.539062 7.78297 4.85474 3.46729 10.1784 3.46729C15.5021 3.46729 19.8178 7.78297 19.8178 13.1066C19.8178 18.4303 15.5021 22.746 10.1784 22.746C4.85474 22.746 0.539062 18.4303 0.539062 13.1066Z" fill="#735CFF"/>
<path fill-rule="evenodd" clip-rule="evenodd" d="M5.36002 10.8933C5.36002 15.565 9.14725 19.3523 13.819 19.3523C18.4908 19.3523 22.278 15.565 22.278 10.8933C22.278 6.22147 18.4908 2.43423 13.819 2.43423C9.14725 2.43423 5.36002 6.22147 5.36002 10.8933ZM13.819 1.25391C8.49537 1.25391 4.17969 5.56959 4.17969 10.8933C4.17969 16.2169 8.49537 20.5326 13.819 20.5326C19.1427 20.5326 23.4584 16.2169 23.4584 10.8933C23.4584 5.56959 19.1427 1.25391 13.819 1.25391Z" fill="#C7BBFF"/>
</svg>
