<svg width="32" height="33" viewBox="0 0 32 33" fill="none" xmlns="http://www.w3.org/2000/svg">
<g clip-path="url(#clip0_2025_628)">
<path d="M31.7904 9.5816C31.7904 6.7691 29.7216 4.5066 27.1654 4.5066C23.7029 4.34473 20.1716 4.28223 16.5629 4.28223H15.4379C11.8379 4.28223 8.30038 4.34473 4.83788 4.50723C2.28788 4.50723 0.21913 6.78223 0.21913 9.59473C0.0628801 11.8191 -0.00336993 14.0441 0.000380068 16.2691C-0.00586993 18.4941 0.0649634 20.7212 0.21288 22.9504C0.21288 25.7629 2.28163 28.0441 4.83163 28.0441C8.46913 28.2129 12.2004 28.2879 15.9941 28.2816C19.7941 28.2941 23.515 28.2149 27.1566 28.0441C29.7129 28.0441 31.7816 25.7629 31.7816 22.9504C31.9316 20.7191 32.0004 18.4941 31.9941 16.2629C32.0083 14.0379 31.9404 11.8108 31.7904 9.5816ZM12.9379 22.4004V10.1191L22.0004 16.2566L12.9379 22.4004Z" fill="#222222"/>
</g>
<defs>
<clipPath id="clip0_2025_628">
<rect width="32" height="32" fill="white" transform="translate(0 0.282227)"/>
</clipPath>
</defs>
</svg>
