<?xml version="1.0" encoding="UTF-8"?>
<svg width="128pt" height="128pt" version="1.1" viewBox="0 0 128 128" xmlns="http://www.w3.org/2000/svg">
 <path d="m118.47 35.391c-3.9219-4.5859-10.648-5.25-15.547-1.8711-1.9453-12.77-9.6133-21.316-21.391-23.18-9.1211-1.4453-22.18 2.0859-27.582 16.941-1.1562-1.2461-2.125-2.4414-3.2461-3.4648-4.8516-4.4336-11.719-5.0898-16.484-1.3711-4.2695 3.3281-5.3086 8.1445-5.1367 13.246 0.19922 5.8359 2.6602 10.906 5.6562 15.789 1.9062 3.1094 3.8555 6.2344 5.3633 9.5469 1.7734 3.8906 0.64453 7.5117-2.3555 10.371-1.6133 1.5352-3.5703 2.7891-5.5312 3.875-5.6094 3.1055-11.145 6.2617-15.426 11.195-7.4414 8.5664-10.734 18.395-9.1562 29.711 0.30078 2.1641 1.7383 3.5234 3.4219 3.5938 1.7305 0.070312 2.9492-1.125 3.5039-3.3984 1.375-5.625 4.7383-9.5391 10.051-11.855 4.4062-1.9219 9.0234-2.0156 13.711-2.0234 7.3164-0.015625 14.73 0.51953 21.926-0.46875 13.621-1.875 25.703-7.5469 34.809-18.18 4.3086-5.0391 8.3789-10.238 12.234-15.641 3.8516-5.3984 7.4336-10.945 10.773-16.676 2.5508-4.3867 4.2656-11.605 0.39453-16.133zm-3.1836 7.6016c-0.039062 0.48047-0.10938 0.96094-0.21094 1.4336-0.11328 0.57031-0.26953 1.1289-0.46094 1.6797-0.16406 0.48047-0.35156 0.94922-0.55859 1.4102-0.19922 0.44141-0.42188 0.87109-0.66406 1.2852-3.2539 5.5859-6.7461 10.996-10.5 16.254-3.7617 5.2695-7.7305 10.344-11.941 15.262-1.4883 1.7461-3.1094 3.3789-4.8438 4.8867-1.6797 1.4531-3.4648 2.7852-5.3398 3.9805-1.8594 1.1836-3.8086 2.2305-5.8203 3.1406-2.0469 0.92578-4.1484 1.7109-6.3008 2.3594-2.2109 0.67188-4.4648 1.1953-6.7383 1.5938-0.57812 0.10547-1.1641 0.19531-1.75 0.28516-0.60156 0.089844-1.1992 0.17188-1.8008 0.23438-1.2344 0.14062-2.4805 0.23438-3.7188 0.29688-1.2852 0.066406-2.5742 0.09375-3.8594 0.10547-1.3359 0.011719-2.6719 0-4.0039-0.019531-1.4609-0.019532-2.9219-0.050782-4.3789-0.074219-1.3867-0.019531-2.7695-0.035157-4.1562-0.035157-0.91016 0-1.8164 0.011719-2.7266 0.03125-0.95312 0.019532-1.9102 0.058594-2.8633 0.125-0.81641 0.058594-1.6289 0.13672-2.4414 0.23828-0.50391 0.066406-1.0117 0.14062-1.5156 0.23047-1.0469 0.18359-2.0859 0.42188-3.1055 0.71484-1.0742 0.31641-2.1367 0.69531-3.1641 1.1445-1.2188 0.53125-2.4062 1.1562-3.5234 1.875-1.1055 0.70312-2.1484 1.5-3.1094 2.3867-0.48047 0.44141-0.93359 0.90625-1.375 1.3867-0.24609 0.26953-0.48437 0.55078-0.71484 0.82812-0.28516 0.35156-0.55469 0.70312-0.81641 1.0703 0.16016-1.3242 0.41016-2.6367 0.75-3.9258 0.39453-1.4844 0.91016-2.9414 1.5312-4.3516 0.34375-0.78125 0.71875-1.5391 1.1289-2.2891 0.40625-0.74609 0.84375-1.4805 1.3047-2.1914 0.49609-0.76562 1.0195-1.5039 1.5664-2.2305 0.55078-0.72656 1.1211-1.4297 1.7188-2.1133 0.32813-0.37891 0.67188-0.75 1.0195-1.1094 0.35156-0.35938 0.71484-0.71094 1.0859-1.0508 0.37891-0.34375 0.76562-0.68359 1.1602-1.0156 0.39453-0.32812 0.79687-0.64453 1.2031-0.95312 1.1367-0.86328 2.3203-1.6641 3.5312-2.4219 0.47656-0.30078 0.95313-0.58984 1.4414-0.87891 0.48438-0.28906 0.96875-0.57031 1.4531-0.85156 0.51172-0.28906 1.0156-0.57812 1.5312-0.86328 0.51172-0.28516 1.0195-0.57031 1.5352-0.85547 0.69531-0.38672 1.3789-0.78516 2.0547-1.2031 0.71484-0.44531 1.4102-0.91406 2.0898-1.4102 0.71094-0.51953 1.3984-1.0742 2.0547-1.6641 0.33594-0.30078 0.66016-0.60938 0.97656-0.93359 0.30859-0.32031 0.60938-0.64844 0.89453-0.98828 0.57422-0.69141 1.1016-1.4258 1.5508-2.1992 0.46484-0.79687 0.85547-1.6289 1.1602-2.4961 0.078125-0.21875 0.14844-0.44531 0.21484-0.67188 0.066406-0.22656 0.125-0.44922 0.17969-0.67578 0.10938-0.46094 0.19531-0.92578 0.25391-1.3945 0.12109-0.94922 0.14062-1.9141 0.050781-2.8633-0.085938-0.96875-0.28125-1.9258-0.56641-2.8555-0.14453-0.46875-0.31641-0.93359-0.50391-1.3945-0.10547-0.24609-0.21484-0.48828-0.32422-0.73438-0.13672-0.28906-0.26953-0.57422-0.41016-0.86328-0.54688-1.1133-1.125-2.2031-1.7305-3.2852-0.57812-1.0352-1.1914-2.0586-1.8047-3.0781-0.29688-0.49609-0.59375-0.98437-0.89844-1.4766-0.23438-0.37891-0.46484-0.76172-0.69922-1.1406-0.21484-0.35156-0.42578-0.70312-0.63672-1.0547-0.41016-0.69141-0.80078-1.3867-1.1758-2.0938-0.35938-0.67578-0.69922-1.3594-1.0195-2.0547-0.41016-0.89844-0.78125-1.8203-1.0859-2.7617-0.21484-0.65625-0.39844-1.3242-0.55078-1.9961-0.14453-0.66016-0.25391-1.3281-0.32422-2.0039-0.035156-0.33984-0.058594-0.67969-0.074219-1.0195-0.015625-0.32422-0.019531-0.65625-0.019531-0.98438 0-0.60547 0.019531-1.2109 0.074219-1.8164 0.050781-0.53516 0.125-1.0703 0.23828-1.6016 0.10156-0.46484 0.23047-0.92578 0.39453-1.3711 0.14844-0.40625 0.33594-0.80078 0.55469-1.1719 0.21484-0.36328 0.46484-0.71094 0.73828-1.0352 0.30469-0.35547 0.64844-0.67578 1.0156-0.96484 0.19141-0.14844 0.39062-0.28906 0.60156-0.42188 0.19922-0.125 0.41016-0.23437 0.62891-0.33594 0.42969-0.19531 0.88672-0.33984 1.3516-0.42969 0.48438-0.09375 0.98438-0.13672 1.4805-0.12109 0.39062 0.011718 0.77344 0.054687 1.1602 0.12891 0.55078 0.10547 1.0859 0.26953 1.6016 0.48438 0.55469 0.23047 1.0859 0.51953 1.5859 0.85547 0.26562 0.17578 0.51953 0.37109 0.76562 0.57031 0.16016 0.12891 0.31641 0.26953 0.46875 0.41016 0.26172 0.23828 0.50391 0.49609 0.75 0.75391 0.33984 0.35938 0.66406 0.73047 0.99609 1.1016 0.36328 0.41016 0.73047 0.82031 1.1055 1.2188 2.0117 2.1641 4.0195 4.3281 6.0312 6.4961 1.0117-2.7734 2.0195-5.5547 3.0312-8.3281 0.33594-0.92578 0.71875-1.8359 1.1602-2.7148 0.39844-0.80078 0.83984-1.5781 1.3281-2.3242 0.87109-1.3281 1.8906-2.5586 3.0547-3.6406 1.0508-0.97656 2.2148-1.8242 3.4648-2.5234 0.94922-0.53516 1.9531-0.98438 2.9844-1.3438 1.2461-0.43359 2.5352-0.74609 3.8438-0.92578 0.62891-0.089844 1.2656-0.14453 1.8984-0.17578 0.61328-0.023437 1.2266-0.023437 1.8398 0 0.57812 0.023438 1.1602 0.078126 1.7344 0.16016 0.33594 0.046875 0.66406 0.10156 1 0.16406 0.35938 0.070313 0.71875 0.14453 1.0781 0.23047 0.68359 0.16406 1.3633 0.35938 2.0352 0.59375 0.64062 0.22656 1.2656 0.48047 1.875 0.76562 0.58984 0.28125 1.1719 0.58984 1.7266 0.92969 0.55078 0.33594 1.0781 0.69922 1.5859 1.0898 1.0195 0.78516 1.9492 1.6836 2.7812 2.6719 0.42969 0.51172 0.82812 1.0391 1.1992 1.5898 0.38672 0.57031 0.74609 1.1602 1.0742 1.7656 0.70312 1.3008 1.2812 2.6758 1.7344 4.0781 0.51172 1.5703 0.875 3.1797 1.1211 4.8086 0.43359 2.8555 0.87109 5.7109 1.3047 8.5664 2.375-1.6406 4.75-3.2812 7.1289-4.9219 0.30859-0.21484 0.64062-0.39844 0.98047-0.55859 0.35547-0.16406 0.73047-0.30078 1.1094-0.39844 0.39062-0.10156 0.78906-0.16406 1.1953-0.19531s0.80859-0.019531 1.2148 0.03125c0.39453 0.050782 0.78906 0.13672 1.1719 0.26172 0.37109 0.12109 0.72656 0.27344 1.0586 0.46484 0.625 0.35156 1.1914 0.80859 1.6484 1.3594 0.03125 0.035156 0.066406 0.074218 0.09375 0.10938 0.035156 0.035156 0.066406 0.070312 0.10156 0.10547 0.066407 0.066406 0.11328 0.14453 0.16406 0.21875 0.089844 0.14844 0.16406 0.30859 0.22656 0.47656 0.046874 0.11328 0.078124 0.23047 0.11328 0.35156 0.039062 0.14063 0.074219 0.28516 0.10156 0.42578 0.070313 0.35156 0.10938 0.70312 0.125 1.0664 0 0.45312-0.011719 0.88672-0.046875 1.3164z"/>
 <path d="m74.352 29.309c-1.6367-1.3945-4.0898-1.1953-5.4844 0.44141-1.3945 1.6367-1.1953 4.0898 0.44141 5.4844 1.6367 1.3945 4.0898 1.1953 5.4844-0.44141s1.1953-4.0898-0.44141-5.4844z"/>
 <path d="m82.77 29.75c-1.3945 1.6367-1.1953 4.0898 0.44141 5.4844 1.6367 1.3945 4.0898 1.1953 5.4844-0.44141 1.3945-1.6367 1.1953-4.0898-0.44141-5.4844-1.6367-1.3906-4.0898-1.1953-5.4844 0.44141z"/>
 <path d="m79.469 38.543c-4.2539-0.44922-6.7266 3.8203-6.9219 7.4805-0.19141 3.5859 1.7266 8.125 5.8438 8.5586 4.2539 0.44922 6.7266-3.8164 6.9219-7.4805 0.19141-3.5781-1.7266-8.1211-5.8438-8.5586z"/>
</svg>
