<?xml version="1.0" encoding="UTF-8"?>
<svg width="512pt" height="512pt" version="1.1" viewBox="0 0 512 512" xmlns="http://www.w3.org/2000/svg">
 <path d="m80.02 174.02h79.203c1.3398 0 2.6602-0.55859 3.6406-1.4805 0.98047-0.92187 1.4805-2.2617 1.4805-3.6406v-76.602l12.082-16.539c1.6797-2.3008 1.1797-5.4805-1.1211-7.1602-2.3008-1.6797-5.4805-1.1797-7.1602 1.1211l-10.859 14.84h-77.262c-1.3398 0-2.6602 0.55859-3.6406 1.4805-0.98047 0.92188-1.4805 2.2617-1.4805 3.6406v79.203c0 1.3398 0.55859 2.6602 1.4805 3.6406 0.92188 0.98047 2.2617 1.4805 3.6406 1.4805zm5.1211-79.203h64.66l-30.32 41.418-10.5-16.582c-1.5391-2.3984-4.6602-3.1211-7.0586-1.5781-2.3984 1.5391-3.1211 4.6602-1.5781 7.0586l14.539 22.98c0.92188 1.4414 2.4609 2.3008 4.1406 2.3984 1.6797 0.058593 3.3203-0.71875 4.3008-2.1016l30.719-42.039v57.441h-68.961v-68.961z"/>
 <path d="m80.02 309.2h79.203c1.3398 0 2.6602-0.55859 3.6406-1.4805s1.4805-2.2617 1.4805-3.6406v-78.602l12.082-16.539c1.6797-2.3008 1.1797-5.4805-1.1211-7.1602-2.3008-1.6797-5.4805-1.1797-7.1602 1.1211l-12.34 16.898h-75.781c-1.3398 0-2.6602 0.55859-3.6406 1.4805-0.98047 0.92188-1.4805 2.2617-1.4805 3.6406v79.203c0 1.3398 0.55859 2.6602 1.4805 3.6406 0.92188 0.98047 2.2617 1.4805 3.6406 1.4805zm5.1211-79.203h63.18l-28.82 39.418-10.5-16.582c-1.5391-2.3984-4.6602-3.1211-7.0586-1.5781-2.3984 1.5391-3.1211 4.6602-1.5781 7.0586l14.539 22.98c0.92188 1.4414 2.4609 2.3008 4.1406 2.3984 1.6797 0.058594 3.3203-0.71875 4.3008-2.1016l30.719-42.039v59.5h-68.961v-68.961z"/>
 <path d="m162.86 442.82c0.98047-0.98047 1.4805-2.2617 1.4805-3.6406v-79.203c0-1.3398-0.55859-2.6602-1.4805-3.6406-0.92188-0.98047-2.2617-1.4805-3.6406-1.4805h-79.203c-1.3398 0-2.6602 0.55859-3.6406 1.4805-0.98047 0.92187-1.4805 2.2617-1.4805 3.6406v79.203c0 1.3398 0.55859 2.6602 1.4805 3.6406 0.92188 0.98047 2.2617 1.4805 3.6406 1.4805h79.203c1.3398 0 2.6602-0.55859 3.6406-1.4805zm-77.723-77.66h68.961v68.961h-68.961z"/>
 <path d="m431.98 120.42h-228.24c-2.8203 0-5.1211 2.3008-5.1211 5.1211 0 2.8203 2.3008 5.1211 5.1211 5.1211h228.24c2.8203 0 5.1211-2.3008 5.1211-5.1211 0-2.8203-2.3008-5.1211-5.1211-5.1211z"/>
 <path d="m431.98 259.32h-228.24c-2.8203 0-5.1211 2.3008-5.1211 5.1211s2.3008 5.1211 5.1211 5.1211h228.24c2.8203 0 5.1211-2.3008 5.1211-5.1211s-2.3008-5.1211-5.1211-5.1211z"/>
 <path d="m431.98 394.5h-228.24c-2.8203 0-5.1211 2.3008-5.1211 5.1211 0 2.8203 2.3008 5.1211 5.1211 5.1211h228.24c2.8203 0 5.1211-2.3008 5.1211-5.1211 0-2.8203-2.3008-5.1211-5.1211-5.1211z"/>
</svg>
