<?xml version="1.0" encoding="UTF-8"?>
<svg width="512pt" height="512pt" version="1.1" viewBox="0 0 512 512" xmlns="http://www.w3.org/2000/svg">
 <path d="m463.1 64.977h-414.2c-20.781 0.039063-37.621 16.879-37.641 37.66v306.72c0.019532 20.781 16.859 37.621 37.641 37.66h414.2c20.781-0.039063 37.621-16.879 37.641-37.66v-306.72c-0.019531-20.781-16.859-37.621-37.641-37.66zm-414.2 13.34h414.2c13.422 0.019532 24.301 10.898 24.301 24.32v52.66h-462.8v-52.66c0-13.422 10.879-24.301 24.301-24.32zm414.2 355.36h-414.2c-13.422-0.019531-24.301-10.898-24.301-24.32v-240.72h462.8v240.72c0 13.422-10.879 24.301-24.301 24.32zm-366.5-293.56c9.4414 0.019531 17.941-5.6602 21.559-14.379 3.6211-8.7188 1.6406-18.762-5.0391-25.418-6.6602-6.6797-16.699-8.6797-25.418-5.0586-8.7188 3.6016-14.398 12.121-14.398 21.559 0.019531 12.859 10.441 23.281 23.301 23.301zm0-33.32v0.019531c4.0391 0 7.6797 2.4219 9.2188 6.1602 1.5586 3.7383 0.69922 8.0391-2.1602 10.898s-7.1602 3.6992-10.898 2.1602c-3.7188-1.5586-6.1602-5.1992-6.1602-9.2383 0.019532-5.5 4.4805-9.9609 10-9.9805zm44.379 9.9805v0.019531c0-3.6797 2.9805-6.6602 6.6602-6.6602h51.039c3.6211 0.10156 6.5 3.0586 6.5 6.6602 0 3.6211-2.8789 6.582-6.5 6.6797h-51.039c-3.6797 0-6.6602-2.9805-6.6602-6.6602zm206.96 0-0.019531 0.019531c0-3.6797 3-6.6602 6.6797-6.6602h13.48-0.019531c3.6211 0.10156 6.5 3.0586 6.5 6.6602 0 3.6211-2.8789 6.582-6.5 6.6797h-13.48 0.019531c-1.7812 0-3.4805-0.69922-4.7188-1.9609-1.2617-1.2383-1.9609-2.9414-1.9609-4.6992zm39.379 0v0.019531c0-3.6797 2.9805-6.6406 6.6602-6.6602h13.5c3.6016 0.10156 6.4805 3.0586 6.4805 6.6797 0 3.6016-2.8789 6.5586-6.4805 6.6602h-13.5c-1.7812 0-3.4805-0.69922-4.7188-1.9609-1.2617-1.2383-1.9609-2.9414-1.9609-4.6992zm39.34 0v0.019531c0-3.6797 2.9805-6.6406 6.6602-6.6602h13.52c3.6211 0.10156 6.4805 3.0586 6.4805 6.6797 0 3.6016-2.8594 6.5586-6.4805 6.6602h-13.52c-3.6797 0-6.6602-3-6.6602-6.6602zm-287.62 169.94 21.84-81.418c0.46094-1.6992 1.5781-3.1602 3.1211-4.0391 1.5195-0.89844 3.3398-1.1211 5.0586-0.67969 3.5586 0.96094 5.6602 4.6211 4.6992 8.1797l-21.801 81.383c-0.78125 2.9219-3.4219 4.9414-6.4414 4.9414-0.57812 0-1.1797-0.058593-1.7383-0.21875-3.5586-0.94141-5.6602-4.5781-4.7383-8.1406zm-49.48-37.379c-2.6016-2.6016-2.6016-6.8203 0-9.418l31.398-31.398c2.6016-2.6016 6.8203-2.6016 9.4414 0 2.6016 2.6211 2.6016 6.8398-0.019531 9.4414l-26.68 26.68 26.68 26.68c1.3008 1.2383 2.0391 2.9414 2.0586 4.7383 0.019531 1.8008-0.67969 3.5195-1.9609 4.7812-1.2617 1.2617-2.9805 1.9805-4.7812 1.9609-1.7812-0.019531-3.5-0.76172-4.7383-2.0586zm92.863 21.961 26.68-26.68-26.68-26.68v0.019531c-2.6016-2.6016-2.6016-6.8203 0-9.4414 2.6016-2.6016 6.8398-2.6016 9.4414 0l31.398 31.398c2.6016 2.6016 2.6016 6.8203 0 9.418l-31.398 31.379c-2.6211 2.5-6.7617 2.4609-9.3203-0.10156-2.5586-2.5586-2.6211-6.7188-0.10156-9.3398zm164.12-44.738-72.301 0.019531c-3.6797 0-6.6602-2.9805-6.6602-6.6602 0-3.6797 2.9805-6.6602 6.6602-6.6602h72.34c3.6797 0 6.6602 2.9805 6.6602 6.6602 0 3.6797-2.9805 6.6602-6.6602 6.6602zm107.9 33.418v0.019532c0 1.7617-0.69922 3.4609-1.9414 4.7188-1.2617 1.2383-2.9609 1.9414-4.7188 1.9414h-10.398c-3.6797 0-6.6602-2.9805-6.6602-6.6602 0-3.6797 2.9805-6.6602 6.6602-6.6602h10.422c3.6602 0 6.6406 2.9414 6.6602 6.6016zm-108.06-6.6602 61.336 0.019532c3.6797 0 6.6602 2.9805 6.6602 6.6602 0 3.6797-2.9805 6.6602-6.6602 6.6602h-61.32c-3.6797 0-6.6602-2.9805-6.6602-6.6602 0-3.6797 2.9805-6.6602 6.6602-6.6602zm-56.238 13.281c-3.6797 0-6.6602-2.9805-6.6602-6.6602s2.9805-6.6602 6.6602-6.6602h26.578c3.6797 0 6.6602 2.9805 6.6602 6.6602s-2.9805 6.6602-6.6602 6.6602zm164.32 33.418c0 1.7812-0.69922 3.4609-1.9414 4.7188-1.2617 1.2617-2.9609 1.9609-4.7188 1.9609h-79.938c-3.6016-0.10156-6.4805-3.0586-6.4805-6.6797 0-3.6016 2.8789-6.5586 6.4805-6.6602h79.938c1.7617 0 3.4609 0.69922 4.7188 1.9414 1.2383 1.2617 1.9414 2.9609 1.9414 4.7188zm-144.38 6.6797c-3.6211-0.10156-6.4805-3.0586-6.4805-6.6797 0-3.6016 2.8594-6.5586 6.4805-6.6602h28.121c3.6016 0.10156 6.4805 3.0586 6.4805 6.6602 0 3.6211-2.8789 6.582-6.4805 6.6797zm-66.68 11.461h-171.32c-8.3594 0.019531-15.141 6.8008-15.141 15.16v38.379c0 8.3594 6.7812 15.141 15.141 15.141h171.32c8.3594 0 15.121-6.7812 15.141-15.141v-38.379c-0.019531-8.3594-6.7812-15.141-15.141-15.16zm1.8008 53.539c-0.019531 1-0.82031 1.8008-1.8008 1.8203h-171.32c-0.98047-0.019531-1.8008-0.82031-1.8008-1.8203v-38.379c0-1 0.82031-1.8008 1.8008-1.8203h171.32c0.98047 0.019531 1.7812 0.82031 1.8008 1.8203zm209.26-31.621c0 1.7617-0.69922 3.4609-1.9414 4.6992-1.2617 1.2617-2.9609 1.9609-4.7188 1.9609h-12.941c-1.8008 0.058594-3.5391-0.62109-4.8398-1.8789-1.2812-1.2617-2.0195-2.9805-2.0195-4.7812s0.73828-3.5391 2.0195-4.8008c1.3008-1.2383 3.0391-1.9219 4.8398-1.8789h12.941c1.7617 0 3.4609 0.69922 4.7188 1.9609 1.2383 1.2383 1.9414 2.9414 1.9414 4.7188zm-166.36-6.6602h11.5c3.6016 0.10156 6.4805 3.0586 6.4805 6.6602 0 3.6211-2.8789 6.582-6.4805 6.6797h-11.5c-1.8008 0.039063-3.5391-0.62109-4.8398-1.8789-1.3008-1.2617-2.0195-2.9805-2.0195-4.8008 0-1.8008 0.71875-3.5195 2.0195-4.7812s3.0391-1.9414 4.8398-1.8789zm34.5 6.6797c0-1.7812 0.69922-3.4805 1.9414-4.7188 1.2617-1.2617 2.9609-1.9609 4.7188-1.9609h75.879c3.6211 0.10156 6.4805 3.0586 6.4805 6.6602 0 3.6211-2.8594 6.582-6.4805 6.6797h-75.879c-1.7617 0-3.4609-0.69922-4.7188-1.9609-1.2383-1.2617-1.9414-2.9609-1.9414-4.7188zm30.422 40.078c0 1.7617-0.71875 3.4609-1.9609 4.7188-1.2617 1.2383-2.9414 1.9414-4.7188 1.9414h-58.238c-3.6797 0-6.6602-2.9805-6.6602-6.6602s2.9805-6.6602 6.6602-6.6602h58.262c3.6797 0 6.6602 2.9805 6.6602 6.6602zm101.44 0c0 1.7617-0.69922 3.4609-1.9609 4.7188-1.2383 1.2383-2.9414 1.9414-4.7188 1.9414h-71.742c-3.6797 0-6.6602-2.9805-6.6602-6.6602s2.9805-6.6602 6.6602-6.6602h71.762c1.7617 0 3.4609 0.69922 4.7188 1.9414 1.2383 1.2617 1.9414 2.9609 1.9414 4.7188z"/>
</svg>
