<?xml version="1.0" encoding="UTF-8"?>
<svg width="512pt" height="512pt" version="1.1" viewBox="0 0 512 512" xmlns="http://www.w3.org/2000/svg">
 <path d="m395.83 396.95h-63.027c-13.73-0.039063-26.883-5.5234-36.574-15.246-9.6953-9.7227-15.137-22.891-15.137-36.617v-267.57c-0.027344-13.742 5.4023-26.93 15.102-36.668 9.6992-9.7344 22.867-15.219 36.609-15.246h63.027c13.719 0.050782 26.855 5.5508 36.523 15.285 9.668 9.7344 15.074 22.91 15.035 36.629v267.32c0.24609 13.801-5.0859 27.117-14.793 36.93s-22.965 15.289-36.766 15.191zm-63.027-358.04c-10.238 0-20.059 4.0703-27.297 11.309-7.2422 7.2383-11.309 17.059-11.309 27.297v267.32c0 10.238 4.0664 20.059 11.309 27.297 7.2383 7.2422 17.059 11.309 27.297 11.309h63.027c10.242 0.011719 20.07-4.0508 27.312-11.293 7.2422-7.2422 11.305-17.07 11.293-27.312v-267.32c0.011718-10.242-4.0508-20.07-11.293-27.312s-17.07-11.305-27.312-11.293z" fill-rule="evenodd"/>
 <path d="m364.8 344.01c-13.902 0-27.238-5.5273-37.062-15.363-9.8242-9.8398-15.332-23.18-15.316-37.082 0.019531-13.902 5.5625-27.227 15.414-37.039 9.8516-9.8125 23.199-15.305 37.102-15.27 13.902 0.035157 27.223 5.5977 37.02 15.461 9.8008 9.8633 15.273 23.219 15.219 37.121-0.066406 13.852-5.6133 27.113-15.426 36.891-9.8125 9.7734-23.098 15.27-36.949 15.281zm0-91.801c-10.461-0.082032-20.527 4-27.98 11.344-7.4492 7.3398-11.676 17.344-11.75 27.805-0.074218 10.465 4.0156 20.523 11.367 27.969 7.3477 7.4453 17.355 11.664 27.816 11.73 10.461 0.0625 20.52-4.0352 27.957-11.391 7.4414-7.3555 11.652-17.367 11.707-27.828 0.054687-10.438-4.0352-20.473-11.367-27.902-7.332-7.4258-17.312-11.645-27.75-11.727z" fill-rule="evenodd"/>
 <path d="m345.6 307.2c-1.7969 0.015625-3.5234-0.69141-4.7969-1.9648-1.2695-1.2695-1.9766-2.9961-1.9648-4.793v-17.461c0-3.7305 3.0273-6.7578 6.7617-6.7578 3.7305 0 6.7578 3.0273 6.7578 6.7578v17.309c-0.054687 3.7344-3.0234 6.7734-6.7578 6.9102z" fill-rule="evenodd"/>
 <path d="m381.54 307.2c-1.7969 0.015625-3.5234-0.69141-4.793-1.9648-1.2734-1.2695-1.9805-2.9961-1.9648-4.793v-17.461c0.30469-3.4883 3.2266-6.168 6.7305-6.168 3.5078 0 6.4297 2.6797 6.7344 6.168v17.309c0.070312 1.8164-0.60938 3.5859-1.875 4.8906-1.2656 1.3047-3.0117 2.0352-4.832 2.0195z" fill-rule="evenodd"/>
 <path d="m364.8 184.98c-13.891 0-27.215-5.5156-37.039-15.34-9.8203-9.8242-15.34-23.145-15.34-37.035 0-13.895 5.5195-27.215 15.34-37.039 9.8242-9.8203 23.148-15.34 37.039-15.34s27.215 5.5195 37.035 15.34c9.8242 9.8242 15.34 23.145 15.34 37.039-0.066406 13.871-5.6055 27.152-15.414 36.961-9.8086 9.8086-23.09 15.348-36.961 15.414zm0-91.801c-10.434-0.054688-20.465 4.043-27.879 11.383-7.4102 7.3438-11.602 17.332-11.648 27.77-0.042969 10.434 4.0586 20.457 11.41 27.863 7.3477 7.4102 17.34 11.59 27.773 11.629 10.438 0.035156 20.457-4.0781 27.859-11.434 7.3984-7.3555 11.574-17.352 11.602-27.785 0.039062-10.418-4.0586-20.422-11.395-27.816-7.3359-7.3906-17.309-11.566-27.723-11.609z" fill-rule="evenodd"/>
 <path d="m345.6 147.46c-1.7969 0.011719-3.5234-0.69531-4.7969-1.9648-1.2695-1.2695-1.9766-2.9961-1.9648-4.793v-17.258c0-3.7305 3.0273-6.7578 6.7617-6.7578 3.7305 0 6.7578 3.0273 6.7578 6.7578v17.82c-0.29297 3.5117-3.2344 6.207-6.7578 6.1953z" fill-rule="evenodd"/>
 <path d="m381.54 147.46c-1.7969 0.011719-3.5234-0.69531-4.793-1.9648-1.2734-1.2695-1.9805-2.9961-1.9648-4.793v-17.258c-0.16406-1.8867 0.46875-3.7539 1.75-5.1523 1.2812-1.3984 3.0859-2.1914 4.9805-2.1914s3.7031 0.79297 4.9844 2.1914c1.2773 1.3984 1.9141 3.2656 1.75 5.1523v17.82c-0.054688 1.7148-0.79297 3.3398-2.0547 4.5039-1.2617 1.1641-2.9375 1.7734-4.6523 1.6914z" fill-rule="evenodd"/>
 <path d="m232.19 366.95c-1.8164 0.070312-3.5859-0.60547-4.8906-1.875-1.3047-1.2656-2.0352-3.0117-2.0195-4.832v-154.47c-0.61328-20.852-12.09-39.859-30.254-50.109-18.164-10.254-40.371-10.254-58.535 0-18.164 10.25-29.641 29.258-30.254 50.109v23.758c0 3.7305-3.0234 6.7578-6.7578 6.7578-3.7305 0-6.7578-3.0273-6.7578-6.7578v-23.758c-0.51953-19.598 6.9023-38.57 20.578-52.617 13.676-14.043 32.445-21.965 52.051-21.965 19.602 0 38.375 7.9219 52.051 21.965 13.676 14.047 21.094 33.02 20.574 52.617v154.73c0.32813 1.6719-0.14844 3.3984-1.2852 4.668-1.1367 1.2656-2.8008 1.9258-4.5 1.7812z" fill-rule="evenodd"/>
 <path d="m298.34 486.4c-19.273 0-37.758-7.6602-51.375-21.301-13.617-13.637-21.254-32.129-21.227-51.402v-62.105c-0.16797-1.8867 0.46875-3.7578 1.75-5.1523 1.2773-1.3984 3.0859-2.1914 4.9805-2.1914 1.8945 0 3.7031 0.79297 4.9844 2.1914 1.2773 1.3945 1.9141 3.2656 1.75 5.1523v62.105c0 21.293 11.359 40.969 29.797 51.613 18.441 10.645 41.16 10.645 59.598 0 18.438-10.645 29.797-30.32 29.797-51.613v-23.5c0-3.7344 3.0273-6.7578 6.7617-6.7578 3.7305 0 6.7578 3.0234 6.7578 6.7578v23.5c-0.30859 19.336-8.1875 37.781-21.941 51.375-13.758 13.594-32.297 21.25-51.633 21.328z" fill-rule="evenodd"/>
 <path d="m140.64 308.38h-72.602c-3.5273 0.003906-6.4375-2.7734-6.6016-6.3008v-36.914c0-15.383 8.207-29.598 21.527-37.289 13.324-7.6914 29.738-7.6914 43.059 0 13.324 7.6914 21.531 21.906 21.531 37.289v36.914c-0.078125 1.7539-0.85156 3.4023-2.1484 4.5859-1.2969 1.1797-3.0117 1.7969-4.7656 1.7148zm-66.148-12.953h59.441v-29.953c0-10.664-5.6875-20.52-14.922-25.852-9.2383-5.332-20.617-5.332-29.852 0-9.2344 5.332-14.926 15.188-14.926 25.852v29.953z" fill-rule="evenodd"/>
 <path d="m89.09 337c-1.7969 0.011719-3.5273-0.69531-4.7969-1.9648-1.2695-1.2734-1.9766-3-1.9648-4.7969v-28.16c0-3.7305 3.0273-6.7578 6.7617-6.7578 3.7305 0 6.7578 3.0273 6.7578 6.7578v28.16c0.011719 1.7969-0.69531 3.5234-1.9648 4.7969-1.2695 1.2695-3 1.9766-4.793 1.9648z" fill-rule="evenodd"/>
 <path d="m120.17 337c-1.7969 0.011719-3.5234-0.69531-4.7969-1.9648-1.2695-1.2734-1.9766-3-1.9648-4.7969v-28.16c-0.16406-1.8867 0.47266-3.7539 1.7539-5.1523 1.2773-1.3984 3.0859-2.1914 4.9805-2.1914s3.7031 0.79297 4.9844 2.1914c1.2773 1.3984 1.9141 3.2656 1.75 5.1523v28.16c-0.13281 3.6602-3.0508 6.6016-6.707 6.7617z" fill-rule="evenodd"/>
</svg>
