<?xml version="1.0" encoding="UTF-8" standalone="no"?>
<!DOCTYPE svg PUBLIC "-//W3C//DTD SVG 1.1//EN" "http://www.w3.org/Graphics/SVG/1.1/DTD/svg11.dtd">
<svg width="100%" height="100%" viewBox="0 0 512 512" version="1.1" xmlns="http://www.w3.org/2000/svg" xmlns:xlink="http://www.w3.org/1999/xlink" xml:space="preserve" xmlns:serif="http://www.serif.com/" style="fill-rule:evenodd;clip-rule:evenodd;stroke-linejoin:round;stroke-miterlimit:2;">
    <path d="M472,80.004L352.56,80.004C348.138,80.004 344.56,83.586 344.56,88.004C344.56,92.422 348.138,96.004 352.56,96.004L472,96.004C476.414,96.004 480,99.594 480,104.004L480,152.004C480,156.414 476.414,160.004 472,160.004L315.12,160.004C310.698,160.004 307.12,163.586 307.12,168.004C307.12,172.422 310.698,176.004 315.12,176.004L464,176.004L464,456.004C464,460.414 460.414,464.004 456,464.004L56,464.004C51.586,464.004 48,460.414 48,456.004L48,176.004L194.16,176.004C198.582,176.004 202.16,172.422 202.16,168.004C202.16,163.586 198.582,160.004 194.16,160.004L40,160.004C35.586,160.004 32,156.414 32,152.004L32,104.004C32,99.594 35.586,96.004 40,96.004L231.6,96.004C236.022,96.004 239.6,92.422 239.6,88.004C239.6,83.586 236.022,80.004 231.6,80.004L40,80.004C26.766,80.004 16,90.77 16,104.004L16,152.004C16,162.418 22.707,171.215 32,174.527L32,456.007C32,469.241 42.766,480.007 56,480.007L456,480.007C469.234,480.007 480,469.241 480,456.007L480,174.527C489.293,171.215 496,162.418 496,152L496,104C496,90.77 485.234,80.004 472,80.004Z" style="fill-rule:nonzero;"/>
    <path d="M50.32,122.32C48.875,123.839 48,125.918 48,128C48,129.039 48.156,130.078 48.64,131.039C49.039,132 49.601,132.879 50.32,133.679C51.836,135.117 53.922,136 56,136C56.476,136 57.039,135.918 57.515,135.84C58.078,135.758 58.554,135.597 59.039,135.359C59.515,135.199 60,134.957 60.398,134.636C60.875,134.32 61.281,134 61.601,133.679C62.398,132.879 62.961,132 63.359,131.039C63.757,130.078 64,129.039 64,128C64,125.918 63.117,123.839 61.601,122.32C58.718,119.359 53.281,119.359 50.32,122.32L50.32,122.32Z" style="fill-rule:nonzero;"/>
    <path d="M91.039,120.64C90.555,120.402 90.078,120.242 89.516,120.163C86.961,119.683 84.156,120.484 82.32,122.324C81.602,123.121 81.039,123.921 80.641,124.96C80.242,125.921 80,126.96 80,128.003C80,129.042 80.242,130.081 80.641,131.042C81.039,132.003 81.602,132.882 82.32,133.683C83.836,135.121 85.922,136.003 88,136.003C88.477,136.003 89.039,135.921 89.516,135.843C90.078,135.761 90.555,135.601 91.039,135.363C91.516,135.203 92,134.96 92.398,134.64C92.875,134.402 93.281,134.003 93.68,133.683C94.398,132.882 94.961,132.003 95.359,131.042C95.758,130.081 96,129.042 96,128.003C96,125.921 95.117,123.843 93.68,122.324C93.281,122.003 92.875,121.683 92.398,121.363C92,121.042 91.516,120.8 91.039,120.64L91.039,120.64Z" style="fill-rule:nonzero;"/>
    <path d="M114.32,122.32C112.875,123.839 112,125.918 112,128C112,129.039 112.156,130.078 112.64,131.039C113.039,132 113.601,132.879 114.32,133.679C115.836,135.117 117.922,136 120,136C122.078,136 124.156,135.117 125.679,133.679C126.398,132.879 126.961,132 127.359,131.039C127.758,130.078 128,129.039 128,128C128,125.918 127.117,123.839 125.679,122.32C122.64,119.359 117.281,119.359 114.32,122.32L114.32,122.32Z" style="fill-rule:nonzero;"/>
    <path d="M177.21,264.74L177.21,264.748C177.202,264.888 177.155,265.029 177.151,265.17L176.011,303.49C175.815,310.251 179.058,316.056 184.48,318.646C186.37,319.552 188.402,319.993 190.448,319.993C194.058,319.993 197.738,318.611 200.831,315.954L228.839,291.895C228.929,291.821 228.992,291.716 229.082,291.637C229.378,291.368 229.644,291.075 229.906,290.755C231.511,289.13 232.929,287.262 233.937,285.118L334.027,70.958C338.207,62.005 335.582,51.856 328.05,47.86L301.175,33.606C297.754,31.79 293.769,31.497 289.964,32.778C285.394,34.305 281.472,37.961 279.206,42.805L179.116,256.965C177.968,259.422 177.339,262.105 177.206,264.738L177.21,264.74ZM192.058,302.349L192.769,278.466L209.585,287.325L192.058,302.349ZM293.708,49.579C294.013,48.927 294.364,48.501 294.638,48.247L319.974,61.685C320.06,62.177 320.028,63.111 319.528,64.185L220.903,275.205L194.712,261.404L293.708,49.579Z" style="fill-rule:nonzero;"/>
    <path d="M368,232L296,232C291.578,232 288,235.582 288,240C288,244.418 291.578,248 296,248L368,248C372.422,248 376,244.418 376,240C376,235.582 372.422,232 368,232Z" style="fill-rule:nonzero;"/>
    <path d="M272,296C267.578,296 264,299.582 264,304C264,308.418 267.578,312 272,312L288,312C292.422,312 296,308.418 296,304C296,299.582 292.422,296 288,296L272,296Z" style="fill-rule:nonzero;"/>
    <path d="M432,296L320,296C315.578,296 312,299.582 312,304C312,308.418 315.578,312 320,312L432,312C436.422,312 440,308.418 440,304C440,299.582 436.422,296 432,296Z" style="fill-rule:nonzero;"/>
    <path d="M136,256L88,256C83.578,256 80,259.582 80,264C80,268.418 83.578,272 88,272L136,272C140.422,272 144,268.418 144,264C144,259.582 140.422,256 136,256Z" style="fill-rule:nonzero;"/>
    <path d="M136,296L88,296C83.578,296 80,299.582 80,304C80,308.418 83.578,312 88,312L136,312C140.422,312 144,308.418 144,304C144,299.582 140.422,296 136,296Z" style="fill-rule:nonzero;"/>
    <g transform="matrix(0.920374,0,0,0.920374,91.6804,21.1293)">
        <g transform="matrix(108.319,0,0,108.319,379.213,445.181)">
        </g>
        <text x="103.76px" y="445.181px" style="font-family:'JCHEadA', 'HeadLineA';font-size:108.319px;">{% %}</text>
    </g>
</svg>
