<?xml version="1.0" encoding="UTF-8"?>
<svg width="512pt" height="512pt" version="1.1" viewBox="0 0 512 512" xmlns="http://www.w3.org/2000/svg">
 <path d="m49.121 455.68h413.76c1.7617 0 3.1992-1.4414 3.1992-3.1992v-11.301c-0.019531-15.34-10.281-28.762-25.059-32.801v-22.199c-0.039062-7.2812-5.6992-13.281-12.961-13.762v-140.2c7.1797-0.48047 12.801-6.3594 12.961-13.559v-21.32h21.859c1.7617 0 3.1992-1.4414 3.1992-3.1992 0-23.262-13.219-44.5-34.078-54.777l-158.72-78.98c-10.898-5.3984-23.66-5.3984-34.559 0l-158.72 78.98c-20.941 10.32-34.16 31.66-34.078 54.98 0 1.7812 1.4414 3.1992 3.1992 3.1992h21.859v21.121c0.019531 7.3008 5.6797 13.34 12.961 13.82v139.94c-7.2617 0.48047-12.918 6.4805-12.961 13.762v22.199c-14.781 4.0391-25.039 17.461-25.059 32.801v11.301c0 1.7617 1.4414 3.1992 3.1992 3.1992zm385.5-69.34v20.898l-68.922 0.019531v-21.078c0-2.0195 0.80078-3.9414 2.2383-5.3594 1.4219-1.4219 3.3789-2.1992 5.3984-2.1602h53.801c2 0 3.8984 0.80078 5.3008 2.2188 1.3984 1.3984 2.1797 3.3203 2.1797 5.3008zm-116.96 20.762v-123.68c0-34.059-27.602-61.66-61.66-61.66s-61.66 27.602-61.66 61.66v123.68h-41.641v-20.918c-0.039063-7.2812-5.6992-13.281-12.961-13.762v-140.2c7.1797-0.48047 12.801-6.3594 12.961-13.559v-21.32h206.6v21.32c0.019531 7.3008 5.6797 13.34 12.961 13.82v139.94c-7.2617 0.48047-12.918 6.4805-12.961 13.762v20.898zm-116.9 0-0.019531-43h52.059v42.98zm110.5-123.68v10.34h-52.059v-65.438c29.199 1.6992 52.02 25.84 52.059 55.102zm-110.52 16.738h52.059v57.539h-52.059zm58.66 0h52.059v57.539h-52.262zm-6.3984-6.3984h-52.262v-10.34c0.039062-29.262 22.859-53.402 52.059-55.102zm6.3984 70.34h52.059v42.98l-52.262 0.019531zm-169.06-131.84h43v140.06h-43zm331.32 140.06h-43v-140.06h42.98zm12.961-153.66c0 4.1406-3.3398 7.4805-7.4805 7.4805h-53.801c-4.1406 0-7.4805-3.3398-7.4805-7.4805v-21.32h68.762zm-352-73.277 75.203-37.34 83.578-41.602-0.019532 0.019532c9.0781-4.4805 19.719-4.4805 28.801 0l159 78.66c17.719 8.6992 29.34 26.32 30.398 46.02h-407.16c1.0586-19.699 12.68-37.32 30.398-46.02zm-5.2383 73.277v-21.32h68.922v21.32c0 4.1406-3.3398 7.4805-7.4805 7.4805h-53.961c-4.1406 0-7.4805-3.3398-7.4805-7.4805zm0 188.7v-21.18c0-4.1211 3.3398-7.4609 7.4805-7.4609h53.801c4.1406 0 7.4805 3.3398 7.4805 7.4609v20.898l-68.762 0.019531zm-25.059 34.078c-0.058594-7.3789 2.8398-14.48 8.0195-19.719 5.1992-5.2617 12.281-8.2188 19.66-8.2188h352c15.301 0 27.699 12.379 27.738 27.68v8.1016h-407.42z"/>
</svg>
