<svg width="272" height="272" viewBox="0 0 272 272" fill="none" xmlns="http://www.w3.org/2000/svg">
<path d="M104.41 37.6437C108.602 33.4521 115.398 33.4521 119.59 37.6437L216.356 134.41C220.548 138.602 220.548 145.398 216.356 149.59L119.59 246.356C115.398 250.548 108.602 250.548 104.41 246.356L7.64369 149.59C3.4521 145.398 3.4521 138.602 7.6437 134.41L104.41 37.6437Z" fill="url(#paint0_linear_542_749)"/>
<path fill-rule="evenodd" clip-rule="evenodd" d="M162.828 37.8531C161.266 36.291 158.734 36.291 157.172 37.8531L67.8531 127.172C66.291 128.734 66.291 131.266 67.8531 132.828L157.172 222.147C158.734 223.709 161.266 223.709 162.828 222.147L252.147 132.828C253.709 131.266 253.709 128.734 252.147 127.172L162.828 37.8531ZM167.59 25.6437C163.398 21.4521 156.602 21.4521 152.41 25.6437L55.6437 122.41C51.4521 126.602 51.4521 133.398 55.6437 137.59L152.41 234.356C156.602 238.548 163.398 238.548 167.59 234.356L264.356 137.59C268.548 133.398 268.548 126.602 264.356 122.41L167.59 25.6437Z" fill="url(#paint1_linear_542_749)"/>
<defs>
<linearGradient id="paint0_linear_542_749" x1="4.5" y1="142" x2="219.5" y2="142" gradientUnits="userSpaceOnUse">
<stop stop-color="#1677FF"/>
<stop offset="1" stop-color="#08C7E0"/>
</linearGradient>
<linearGradient id="paint1_linear_542_749" x1="52.5" y1="130" x2="267.5" y2="130" gradientUnits="userSpaceOnUse">
<stop stop-color="#D6E7FF"/>
<stop offset="1" stop-color="#D8F9FE"/>
</linearGradient>
</defs>
</svg>
