<?xml version="1.0" encoding="UTF-8"?>
<svg width="512pt" height="512pt" version="1.1" viewBox="0 0 512 512" xmlns="http://www.w3.org/2000/svg">
 <path d="m73.727 376.63c31.438-32.051 62.875-64.203 94.207-96.258 4.5039-4.6094 9.0117-9.2148 13.516-13.824 5.8359-5.9375 5.8359-15.77 0-21.707-31.438-32.051-62.875-64.203-94.207-96.258-4.5039-4.6094-9.0117-9.2148-13.516-13.824-5.8359-5.9375-15.871-5.8359-21.707 0-5.9375 5.9375-5.8359 15.77 0 21.707 31.438 32.051 62.875 64.203 94.207 96.258 4.5039 4.6094 9.0117 9.2148 13.516 13.824v-21.707c-31.438 32.051-62.875 64.203-94.207 96.258-4.5039 4.6094-9.0117 9.2148-13.516 13.824-5.8359 5.9375-5.9375 15.77 0 21.707 5.8359 5.8359 15.871 5.9375 21.707 0z"/>
 <path d="m197.32 381.64h85.094 135.58 31.027c7.9883 0 15.77-7.0664 15.359-15.359-0.41016-8.293-6.7578-15.359-15.359-15.359h-85.094-135.58-31.027c-7.9883 0-15.77 7.0664-15.359 15.359 0.30859 8.293 6.6562 15.359 15.359 15.359z"/>
</svg>
