<svg xmlns="http://www.w3.org/2000/svg" width="120" height="28" viewBox="0 0 120 28" fill="none">
<path d="M17.5814 8.14659C17.5814 11.8328 14.5932 14.821 10.907 14.821H0V14.1698C3.32655 14.1698 6.02326 11.4731 6.02326 8.14659C6.02326 4.82003 3.32655 2.12333 0 2.12333V1.47217H10.907C14.5932 1.47217 17.5814 4.46041 17.5814 8.14659Z" fill="#fff"/>
<path d="M17.5814 23.9373C17.5814 20.2511 14.5932 17.2629 10.907 17.2629H0V17.914C3.32655 17.914 6.02326 20.6107 6.02326 23.9373H17.5814Z" fill="#fff"/>
<path d="M24.2558 22.6082V5.05356H32.8325C34.0196 5.05356 35.0645 5.28763 35.9673 5.75575C36.8868 6.20716 37.5974 6.84247 38.0989 7.66169C38.6172 8.4809 38.8763 9.42551 38.8763 10.4955C38.8763 11.6157 38.5671 12.6021 37.9485 13.4547C37.3299 14.3074 36.5023 14.9427 35.4657 15.3607L39.3528 22.6082H35.2902L31.8545 15.8873H27.8921V22.6082H24.2558ZM27.8921 12.903H32.5065C33.3257 12.903 33.9778 12.6857 34.4626 12.251C34.9642 11.8163 35.2149 11.2479 35.2149 10.5457C35.2149 9.84348 34.9642 9.27504 34.4626 8.84036C33.9778 8.40567 33.3257 8.18833 32.5065 8.18833H27.8921V12.903Z" fill="#fff"/>
<path d="M46.6866 22.859C45.3826 22.859 44.1955 22.5581 43.1255 21.9562C42.0722 21.3543 41.2363 20.5435 40.6177 19.5236C39.9991 18.5038 39.6898 17.3586 39.6898 16.0879C39.6898 14.8173 39.9824 13.6721 40.5676 12.6522C41.1694 11.6324 41.9803 10.8215 43.0001 10.2197C44.02 9.61778 45.1568 9.31684 46.4108 9.31684C47.6647 9.31684 48.7765 9.62614 49.7461 10.2447C50.7158 10.8633 51.4765 11.6993 52.0282 12.7525C52.5967 13.8058 52.8809 15.0012 52.8809 16.3387V17.2415H43.2008C43.3512 17.7598 43.5936 18.2279 43.928 18.6459C44.2791 19.0639 44.7054 19.3899 45.207 19.6239C45.7253 19.858 46.277 19.975 46.8622 19.975C47.4473 19.975 47.9823 19.8831 48.4672 19.6992C48.9687 19.5153 49.395 19.2561 49.7461 18.9218L52.0032 20.9782C51.2007 21.6302 50.3731 22.1067 49.5204 22.4076C48.6845 22.7085 47.7399 22.859 46.6866 22.859ZM43.1506 14.7839H49.4954C49.3783 14.2656 49.161 13.8142 48.8433 13.4296C48.5424 13.0284 48.1746 12.7191 47.7399 12.5018C47.3219 12.2677 46.8538 12.1507 46.3355 12.1507C45.8005 12.1507 45.3157 12.2593 44.881 12.4767C44.4463 12.694 44.0785 13.0033 43.7776 13.4046C43.4933 13.7891 43.2843 14.2489 43.1506 14.7839Z" fill="#fff"/>
<path d="M61.1277 22.7838C59.8905 22.7838 58.7703 22.4828 57.7672 21.881C56.7641 21.2791 55.9616 20.4766 55.3597 19.4735C54.7746 18.4536 54.482 17.3168 54.482 16.0629C54.482 14.8089 54.7746 13.6804 55.3597 12.6773C55.9616 11.6575 56.7725 10.855 57.7923 10.2698C58.8121 9.66793 59.9574 9.367 61.228 9.367C61.88 9.367 62.507 9.45895 63.1088 9.64286C63.7107 9.81004 64.2708 10.0608 64.7891 10.3952V5.05356H68.2248V22.6082H64.8392V21.5299C63.7692 22.3658 62.5321 22.7838 61.1277 22.7838ZM61.6794 19.8496C62.3147 19.8496 62.8915 19.7493 63.4098 19.5487C63.9448 19.3314 64.4046 19.0137 64.7891 18.5957V13.5049C64.4046 13.1204 63.9448 12.8194 63.4098 12.6021C62.8748 12.3847 62.298 12.2761 61.6794 12.2761C60.9605 12.2761 60.3085 12.4432 59.7233 12.7776C59.1549 13.0953 58.7035 13.5467 58.3691 14.1318C58.0347 14.7003 57.8675 15.3439 57.8675 16.0629C57.8675 16.7818 58.0347 17.4254 58.3691 17.9939C58.7035 18.5623 59.1549 19.0137 59.7233 19.3481C60.3085 19.6825 60.9605 19.8496 61.6794 19.8496Z" fill="#fff"/>
<path d="M77.2745 22.859C75.9704 22.859 74.7917 22.5581 73.7384 21.9562C72.6852 21.3543 71.8492 20.5435 71.2306 19.5236C70.612 18.5038 70.3027 17.3586 70.3027 16.0879C70.3027 14.8173 70.6037 13.6721 71.2056 12.6522C71.8241 11.6157 72.6601 10.7964 73.7134 10.1946C74.7834 9.5927 75.9704 9.29176 77.2745 9.29176C78.5785 9.29176 79.7572 9.5927 80.8105 10.1946C81.8805 10.7964 82.7164 11.6157 83.3183 12.6522C83.9369 13.6721 84.2462 14.8173 84.2462 16.0879C84.2462 17.3586 83.9369 18.5038 83.3183 19.5236C82.7164 20.5435 81.8888 21.3543 80.8355 21.9562C79.7823 22.5581 78.5952 22.859 77.2745 22.859ZM77.2745 19.8747C77.9599 19.8747 78.5702 19.7075 79.1052 19.3732C79.6569 19.0388 80.0916 18.5874 80.4092 18.0189C80.7436 17.4338 80.9108 16.7901 80.9108 16.0879C80.9108 15.369 80.7436 14.7254 80.4092 14.1569C80.0916 13.5885 79.6569 13.1371 79.1052 12.8027C78.5702 12.4516 77.9599 12.2761 77.2745 12.2761C76.6057 12.2761 75.9955 12.4516 75.4438 12.8027C74.892 13.1371 74.4573 13.5885 74.1397 14.1569C73.822 14.7254 73.6632 15.369 73.6632 16.0879C73.6632 16.7901 73.822 17.4338 74.1397 18.0189C74.4573 18.5874 74.892 19.0388 75.4438 19.3732C75.9955 19.7075 76.6057 19.8747 77.2745 19.8747Z" fill="#fff"/>
<path d="M92.6025 22.859C91.3151 22.859 90.1532 22.5664 89.1166 21.9813C88.08 21.3794 87.2608 20.5685 86.659 19.5487C86.0571 18.5121 85.7561 17.3586 85.7561 16.0879C85.7561 14.8006 86.0571 13.647 86.659 12.6271C87.2608 11.6073 88.08 10.7964 89.1166 10.1946C90.1532 9.5927 91.3151 9.29176 92.6025 9.29176C93.639 9.29176 94.6254 9.49239 95.5617 9.89364C96.5146 10.2949 97.3339 10.8717 98.0193 11.624L95.9128 13.856C95.4279 13.321 94.918 12.9281 94.383 12.6773C93.8647 12.4098 93.2963 12.2761 92.6777 12.2761C92.009 12.2761 91.4071 12.4432 90.8721 12.7776C90.3538 13.112 89.9358 13.5634 89.6182 14.1318C89.3172 14.7003 89.1668 15.3523 89.1668 16.0879C89.1668 16.7901 89.3172 17.4338 89.6182 18.0189C89.9358 18.5874 90.3705 19.0388 90.9222 19.3732C91.474 19.6908 92.0842 19.8496 92.7529 19.8496C93.3381 19.8496 93.8814 19.7326 94.383 19.4986C94.9013 19.2478 95.3945 18.88 95.8626 18.3951L97.919 20.5518C97.2503 21.2707 96.4478 21.8392 95.5115 22.2571C94.5753 22.6584 93.6056 22.859 92.6025 22.859Z" fill="#fff"/>
<path d="M99.7052 22.6082V5.05356L103.141 5.05356V22.6082H99.7052Z" fill="#fff"/>
<path d="M107.107 28C106.806 28 106.513 27.9833 106.229 27.9499C105.962 27.9331 105.736 27.9081 105.552 27.8746V24.9154C105.886 24.9823 106.288 25.0157 106.756 25.0157C108.01 25.0157 108.879 24.4222 109.364 23.2352L109.564 22.7336L104.474 9.54254H108.26L111.521 18.4453L115.207 9.54254H118.919L112.9 23.6615C112.448 24.7148 111.955 25.5591 111.42 26.1944C110.885 26.8297 110.267 27.2895 109.564 27.5737C108.879 27.8579 108.06 28 107.107 28Z" fill="#fff"/>
</svg>