<svg version="1.1" id="Layer_1" xmlns="http://www.w3.org/2000/svg" x="0" y="0" width="100px" viewBox="0 0 496 496" xml:space="preserve"><style>.st0{fill:#dce7fd}.st1{fill:#0059db}</style><path class="st0" d="M248 48.01L221 61.5h-21L176.01 74v28L154 122v31l-19 23 9.01 26 11.99 8-5 30 25.01 24 5.99 33h32l28 22 21-20V68z"/><path class="st1" d="M169.97 98.68c-15.13 5.71-25.97 20.23-25.97 37.33 0 6.59 1.75 12.71 4.59 18.2-12 4.61-20.59 16.18-20.59 29.8 0 13.62 8.59 25.18 20.59 29.8-2.83 5.49-4.59 11.62-4.59 18.2 0 17.11 10.84 31.62 25.97 37.33-1.2 3.35-1.97 6.91-1.97 10.67 0 17.65 14.35 32 32 32 3.98 0 7.76-.82 11.28-2.15C216.47 320.55 227.34 328 240 328c17.65 0 32-14.35 32-32V72c0-17.64-14.35-32-32-32-12.66 0-23.53 7.46-28.72 18.15-3.52-1.33-7.3-2.15-11.28-2.15-17.65 0-32 14.36-32 32 .01 3.77.77 7.33 1.97 10.68zM200 72.01c8.82 0 16 7.18 16 16h16c0-7.69-2.84-14.66-7.37-20.18 1.86-6.78 8.01-11.82 15.37-11.82 8.82 0 16 7.18 16 16v224c0 8.82-7.18 16-16 16-7.37 0-13.52-5.03-15.37-11.82 4.54-5.52 7.37-12.49 7.37-20.18h-16c0 8.82-7.18 16-16 16s-16-7.18-16-16 7.18-16 16-16v-16c-7.79 0-14.85 2.91-20.4 7.55-11.14-2.07-19.6-11.82-19.6-23.55 0-13.23 10.77-24 24-24s24 10.77 24 24h16c0-22.05-17.94-40-40-40-9.04 0-17.3 3.13-24 8.21V200c-8.82 0-16-7.18-16-16s7.18-16 16-16v-.21c6.7 5.08 14.96 8.21 24 8.21 22.06 0 40-17.94 40-40h-16c0 13.23-10.77 24-24 24s-24-10.77-24-24c0-11.73 8.46-21.48 19.6-23.55 5.55 4.64 12.61 7.55 20.4 7.55v-16c-8.82 0-16-7.18-16-16s7.18-15.99 16-15.99z"/><path class="st0" d="M311 48.51L338 62h21l24 12.5v28l22 20v31l19 23.01-9 25.99-12 8 5 30-25 24-6 33h-32l-28 22-21-20v-231z"/><path class="st1" d="M360 56.01c-3.98 0-7.76.82-11.28 2.15-5.19-10.7-16.06-18.15-28.72-18.15-17.65 0-32 14.36-32 32v224c0 17.65 14.35 32 32 32 12.66 0 23.53-7.45 28.72-18.15 3.52 1.33 7.29 2.15 11.28 2.15 17.65 0 32-14.35 32-32 0-3.76-.77-7.32-1.97-10.67C405.16 263.62 416 249.11 416 232c0-6.58-1.75-12.71-4.58-18.2 12-4.62 20.58-16.18 20.58-29.8 0-13.61-8.58-25.18-20.58-29.8 2.83-5.49 4.58-11.62 4.58-18.2 0-17.1-10.84-31.61-25.97-37.33 1.2-3.35 1.97-6.91 1.97-10.67 0-17.64-14.35-31.99-32-31.99zm40 80c0 13.23-10.77 24-24 24s-24-10.77-24-24h-16c0 22.06 17.94 40 40 40 9.04 0 17.3-3.12 24-8.21v.2c8.82 0 16 7.18 16 16s-7.18 16-16 16v.21c-6.7-5.08-14.96-8.21-24-8.21-22.05 0-40 17.94-40 40h16c0-13.23 10.77-24 24-24s24 10.77 24 24c0 11.73-8.46 21.48-19.6 23.55-5.55-4.64-12.61-7.55-20.4-7.55v16c8.82 0 16 7.18 16 16s-7.18 16-16 16-16-7.18-16-16h-16c0 7.69 2.84 14.66 7.37 20.18-1.85 6.79-8 11.82-15.37 11.82-8.82 0-16-7.18-16-16V72c0-8.82 7.18-16 16-16 7.37 0 13.52 5.04 15.37 11.82C330.83 73.34 328 80.32 328 88h16c0-8.82 7.18-16 16-16s16 7.18 16 16-7.18 16-16 16v16c7.79 0 14.85-2.91 20.4-7.55 11.14 2.08 19.6 11.83 19.6 23.56z"/><path class="st1" d="M405.98 49.9C368.6 14.76 319.64-2.86 268.25.38l.99 15.96c46.95-2.92 91.63 13.14 125.78 45.21C429.18 93.65 448 137.15 448 184c0 56.46-28.14 108.82-75.29 140.06-16.26 10.78-28.57 26.16-36.15 43.93H223.11c-7.69-17.9-20.04-33.39-36.33-44.27-48.59-32.47-76.5-86.7-74.69-145.09l-15.99-.5c-1.99 63.94 28.59 123.33 81.79 158.88 11.75 7.86 21.13 18.55 27.67 30.97H184v16h27.94c1.55 5.18 2.79 10.5 3.42 16H200v16h16v24c0 4.43 3.59 8 8 8h8c0 26.47 21.53 48 48 48s48-21.53 48-48h8c4.42 0 8-3.57 8-8v-24h16v-16h-15.44c.57-5.5 1.7-10.82 3.21-16H376v-16h-21.91c6.45-12.28 15.77-22.85 27.46-30.59C433.18 303.18 464 245.84 464 184c0-50.57-21.15-99.45-58.02-134.1zM280 480c-17.65 0-32-14.35-32-32h64c0 17.65-14.35 32-32 32zm48-48h-96v-16h96v16zm.57-32h-97.21c-.54-5.45-1.4-10.8-2.71-16h102.41c-1.27 5.2-2.01 10.57-2.49 16zM88.01 56.01c17.65 0 32 14.36 32 32 0 4.43 3.59 8 8 8 4.42 0 8-3.57 8-8 0-17.64 14.35-32 32-32 4.42 0 8-3.57 8-8 0-4.42-3.58-8-8-8-17.65 0-32-14.35-32-32 0-4.42-3.58-8-8-8-4.41 0-8 3.58-8 8 0 17.65-14.35 32-32 32-4.41 0-8 3.58-8 8s3.58 8 8 8zm40-21.5c3.55 5.34 8.15 9.95 13.5 13.5a48.471 48.471 0 00-13.5 13.5 48.471 48.471 0 00-13.5-13.5c5.34-3.55 9.95-8.16 13.5-13.5zM120.01 136.01c4.42 0 8-3.57 8-8 0-4.42-3.58-8-8-8-17.65 0-32-14.35-32-32 0-4.42-3.58-8-8-8-4.41 0-8 3.58-8 8 0 17.65-14.35 32-32 32-4.41 0-8 3.58-8 8 0 4.43 3.59 8 8 8 17.65 0 32 14.36 32 32 0 4.43 3.59 8 8 8 4.42 0 8-3.57 8-8 0-17.65 14.35-32 32-32zm-40 5.49a48.471 48.471 0 00-13.5-13.5c5.34-3.55 9.94-8.15 13.5-13.5 3.55 5.34 8.15 9.94 13.5 13.5a48.471 48.471 0 00-13.5 13.5z"/></svg>