<svg version="1.1" viewBox="0.0 0.0 960.0 540.0" fill="none" stroke="none" stroke-linecap="square" stroke-miterlimit="10" xmlns:xlink="http://www.w3.org/1999/xlink" xmlns="http://www.w3.org/2000/svg"><clipPath id="p.0"><path d="m0 0l960.0 0l0 540.0l-960.0 0l0 -540.0z" clip-rule="nonzero"/></clipPath><g clip-path="url(#p.0)"><path fill="#ffffff" d="m0 0l960.0 0l0 540.0l-960.0 0z" fill-rule="evenodd"/><path fill="#0000ff" fill-opacity="0.538" d="m145.97113 357.53806l0 0c0 -92.2446 74.77902 -167.02362 167.02362 -167.02362l0 0c44.297424 0 86.78052 17.597076 118.103546 48.92009c31.322998 31.323013 48.920074 73.80611 48.920074 118.10353l0 0c0 92.2446 -74.77902 167.02365 -167.02362 167.02365l0 0c-92.2446 0 -167.02362 -74.77905 -167.02362 -167.02365z" fill-rule="evenodd"/><path stroke="#595959" stroke-width="1.0" stroke-linejoin="round" stroke-linecap="butt" d="m145.97113 357.53806l0 0c0 -92.2446 74.77902 -167.02362 167.02362 -167.02362l0 0c44.297424 0 86.78052 17.597076 118.103546 48.92009c31.322998 31.323013 48.920074 73.80611 48.920074 118.10353l0 0c0 92.2446 -74.77902 167.02365 -167.02362 167.02365l0 0c-92.2446 0 -167.02362 -74.77905 -167.02362 -167.02365z" fill-rule="evenodd"/><path fill="#9900ff" fill-opacity="0.5" d="m345.5277 357.53806l0 0c0 -92.2446 74.77902 -167.02362 167.02362 -167.02362l0 0c44.297424 0 86.78052 17.597076 118.103516 48.92009c31.322998 31.323013 48.920105 73.80611 48.920105 118.10353l0 0c0 92.2446 -74.77905 167.02365 -167.02362 167.02365l0 0c-92.2446 0 -167.02362 -74.77905 -167.02362 -167.02365z" fill-rule="evenodd"/><path stroke="#595959" stroke-width="1.0" stroke-linejoin="round" stroke-linecap="butt" d="m345.5277 357.53806l0 0c0 -92.2446 74.77902 -167.02362 167.02362 -167.02362l0 0c44.297424 0 86.78052 17.597076 118.103516 48.92009c31.322998 31.323013 48.920105 73.80611 48.920105 118.10353l0 0c0 92.2446 -74.77905 167.02365 -167.02362 167.02365l0 0c-92.2446 0 -167.02362 -74.77905 -167.02362 -167.02365z" fill-rule="evenodd"/><path fill="#000000" fill-opacity="0.0" d="m224.54459 350.52524l97.85828 0l0 53.322815l-97.85828 0z" fill-rule="evenodd"/><path fill="#ffffff" d="m236.06021 386.40524l0 -18.375l5.75 0q1.875 0 3.328125 0.5q1.453125 0.484375 2.28125 1.625q0.828125 1.125 0.828125 3.03125q0 2.125 -1.125 3.4375q-1.125 1.296875 -3.015625 1.765625l4.671875 8.015625l-2.640625 0l-4.421875 -7.75l-3.328125 0l0 7.75l-2.328125 0zm2.328125 -9.65625l3.078125 0q2.15625 0 3.296875 -0.875q1.15625 -0.890625 1.15625 -2.6875q0 -1.8125 -1.15625 -2.53125q-1.140625 -0.734375 -3.296875 -0.734375l-3.078125 0l0 6.828125zm18.62082 10.0q-1.828125 0 -3.3125 -0.859375q-1.46875 -0.859375 -2.34375 -2.453125q-0.875 -1.59375 -0.875 -3.8125q0 -2.234375 0.875 -3.828125q0.890625 -1.59375 2.296875 -2.453125q1.40625 -0.875 2.9375 -0.875q2.609375 0 4.015625 1.734375q1.421875 1.734375 1.421875 4.640625q0 0.359375 -0.015625 0.71875q-0.015625 0.34375 -0.078125 0.59375l-9.171875 0q0.140625 2.15625 1.34375 3.453125q1.21875 1.28125 3.1875 1.28125q0.984375 0 1.796875 -0.28125q0.828125 -0.296875 1.59375 -0.78125l0.8125 1.515625q-0.875 0.5625 -1.984375 0.984375q-1.09375 0.421875 -2.5 0.421875zm-4.28125 -8.234375l7.28125 0q0 -2.078125 -0.890625 -3.15625q-0.875 -1.078125 -2.46875 -1.078125q-1.4375 0 -2.578125 1.109375q-1.125 1.109375 -1.34375 3.125zm18.169312 8.234375q-1.828125 0 -3.3125 -0.859375q-1.46875 -0.859375 -2.34375 -2.453125q-0.875 -1.59375 -0.875 -3.8125q0 -2.234375 0.875 -3.828125q0.890625 -1.59375 2.296875 -2.453125q1.40625 -0.875 2.9375 -0.875q2.609375 0 4.015625 1.734375q1.421875 1.734375 1.421875 4.640625q0 0.359375 -0.015625 0.71875q-0.015625 0.34375 -0.078125 0.59375l-9.171875 0q0.140625 2.15625 1.34375 3.453125q1.21875 1.28125 3.1875 1.28125q0.984375 0 1.796875 -0.28125q0.828125 -0.296875 1.59375 -0.78125l0.8125 1.515625q-0.875 0.5625 -1.984375 0.984375q-1.09375 0.421875 -2.5 0.421875zm-4.28125 -8.234375l7.28125 0q0 -2.078125 -0.890625 -3.15625q-0.875 -1.078125 -2.46875 -1.078125q-1.4375 0 -2.578125 1.109375q-1.125 1.109375 -1.34375 3.125zm13.044312 7.890625l0 -11.734375l-1.84375 0l0 -1.734375l1.84375 -0.140625l0 -2.15625q0 -2.078125 0.96875 -3.28125q0.96875 -1.21875 3.0 -1.21875q0.65625 0 1.234375 0.125q0.59375 0.125 1.046875 0.3125l-0.515625 1.765625q-0.75 -0.328125 -1.53125 -0.328125q-1.90625 0 -1.90625 2.625l0 2.15625l2.890625 0l0 1.875l-2.890625 0l0 11.734375l-2.296875 0z" fill-rule="nonzero"/><path fill="#000000" fill-opacity="0.0" d="m536.1452 350.52524l97.858215 0l0 53.322815l-97.858215 0z" fill-rule="evenodd"/><path fill="#ffffff" d="m547.6608 386.40524l0 -18.375l5.75 0q1.875 0 3.328125 0.5q1.453125 0.484375 2.28125 1.625q0.828125 1.125 0.828125 3.03125q0 2.125 -1.125 3.4375q-1.125 1.296875 -3.015625 1.765625l4.671875 8.015625l-2.640625 0l-4.421875 -7.75l-3.328125 0l0 7.75l-2.328125 0zm2.328125 -9.65625l3.078125 0q2.15625 0 3.296875 -0.875q1.15625 -0.890625 1.15625 -2.6875q0 -1.8125 -1.15625 -2.53125q-1.140625 -0.734375 -3.296875 -0.734375l-3.078125 0l0 6.828125zm18.620789 10.0q-1.828125 0 -3.3125 -0.859375q-1.46875 -0.859375 -2.34375 -2.453125q-0.875 -1.59375 -0.875 -3.8125q0 -2.234375 0.875 -3.828125q0.890625 -1.59375 2.296875 -2.453125q1.40625 -0.875 2.9375 -0.875q2.609375 0 4.015625 1.734375q1.421875 1.734375 1.421875 4.640625q0 0.359375 -0.015625 0.71875q-0.015625 0.34375 -0.078125 0.59375l-9.171875 0q0.140625 2.15625 1.34375 3.453125q1.21875 1.28125 3.1875 1.28125q0.984375 0 1.796875 -0.28125q0.828125 -0.296875 1.59375 -0.78125l0.8125 1.515625q-0.875 0.5625 -1.984375 0.984375q-1.09375 0.421875 -2.5 0.421875zm-4.28125 -8.234375l7.28125 0q0 -2.078125 -0.890625 -3.15625q-0.875 -1.078125 -2.46875 -1.078125q-1.4375 0 -2.578125 1.109375q-1.125 1.109375 -1.34375 3.125zm15.731201 7.890625l-4.890625 -13.609375l2.375 0l2.578125 7.734375q0.296875 1.0 0.625 2.015625q0.328125 1.0 0.625 1.984375l0.109375 0q0.3125 -0.984375 0.625 -1.984375q0.328125 -1.015625 0.609375 -2.015625l2.578125 -7.734375l2.265625 0l-4.8125 13.609375l-2.6875 0zm15.542175 0.34375q-1.828125 0 -3.3125 -0.859375q-1.46875 -0.859375 -2.34375 -2.453125q-0.875 -1.59375 -0.875 -3.8125q0 -2.234375 0.875 -3.828125q0.890625 -1.59375 2.296875 -2.453125q1.40625 -0.875 2.9375 -0.875q2.609375 0 4.015625 1.734375q1.421875 1.734375 1.421875 4.640625q0 0.359375 -0.015625 0.71875q-0.015625 0.34375 -0.078125 0.59375l-9.171875 0q0.140625 2.15625 1.34375 3.453125q1.21875 1.28125 3.1875 1.28125q0.984375 0 1.796875 -0.28125q0.828125 -0.296875 1.59375 -0.78125l0.8125 1.515625q-0.875 0.5625 -1.984375 0.984375q-1.09375 0.421875 -2.5 0.421875zm-4.28125 -8.234375l7.28125 0q0 -2.078125 -0.890625 -3.15625q-0.875 -1.078125 -2.46875 -1.078125q-1.4375 0 -2.578125 1.109375q-1.125 1.109375 -1.34375 3.125zm15.091187 8.234375q-1.296875 0 -1.875 -0.796875q-0.5625 -0.8125 -0.5625 -2.296875l0 -17.1875l2.296875 0l0 17.359375q0 0.53125 0.1875 0.78125q0.203125 0.234375 0.453125 0.234375q0.109375 0 0.203125 -0.015625q0.109375 -0.015625 0.296875 -0.046875l0.3125 1.734375q-0.21875 0.109375 -0.53125 0.171875q-0.3125 0.0625 -0.78125 0.0625z" fill-rule="nonzero"/><path fill="#0042db" fill-opacity="0.538" d="m249.97113 213.53806l0 0c0 -92.2446 74.77902 -167.02362 167.02362 -167.02362l0 0c44.297424 0 86.78052 17.597084 118.103516 48.92009c31.322998 31.323006 48.920105 73.80612 48.920105 118.10353l0 0c0 92.2446 -74.77902 167.02362 -167.02362 167.02362l0 0c-92.2446 0 -167.02362 -74.77902 -167.02362 -167.02362z" fill-rule="evenodd"/><path stroke="#595959" stroke-width="1.0" stroke-linejoin="round" stroke-linecap="butt" d="m249.97113 213.53806l0 0c0 -92.2446 74.77902 -167.02362 167.02362 -167.02362l0 0c44.297424 0 86.78052 17.597084 118.103516 48.92009c31.322998 31.323006 48.920105 73.80612 48.920105 118.10353l0 0c0 92.2446 -74.77902 167.02362 -167.02362 167.02362l0 0c-92.2446 0 -167.02362 -74.77902 -167.02362 -167.02362z" fill-rule="evenodd"/><path fill="#000000" fill-opacity="0.0" d="m367.36078 286.52524l97.85828 0l0 53.322815l-97.85828 0z" fill-rule="evenodd"/><path fill="#ffffff" d="m378.8764 322.40524l0 -18.375l5.75 0q1.875 0 3.328125 0.5q1.453125 0.484375 2.28125 1.625q0.828125 1.125 0.828125 3.03125q0 2.125 -1.125 3.4375q-1.125 1.296875 -3.015625 1.765625l4.671875 8.015625l-2.640625 0l-4.421875 -7.75l-3.328125 0l0 7.75l-2.328125 0zm2.328125 -9.65625l3.078125 0q2.15625 0 3.296875 -0.875q1.15625 -0.890625 1.15625 -2.6875q0 -1.8125 -1.15625 -2.53125q-1.140625 -0.734375 -3.296875 -0.734375l-3.078125 0l0 6.828125zm18.62082 10.0q-1.828125 0 -3.3125 -0.859375q-1.46875 -0.859375 -2.34375 -2.453125q-0.875 -1.59375 -0.875 -3.8125q0 -2.234375 0.875 -3.828125q0.890625 -1.59375 2.296875 -2.453125q1.40625 -0.875 2.9375 -0.875q2.609375 0 4.015625 1.734375q1.421875 1.734375 1.421875 4.640625q0 0.359375 -0.015625 0.71875q-0.015625 0.34375 -0.078125 0.59375l-9.171875 0q0.140625 2.15625 1.34375 3.453125q1.21875 1.28125 3.1875 1.28125q0.984375 0 1.796875 -0.28125q0.828125 -0.296875 1.59375 -0.78125l0.8125 1.515625q-0.875 0.5625 -1.984375 0.984375q-1.09375 0.421875 -2.5 0.421875zm-4.28125 -8.234375l7.28125 0q0 -2.078125 -0.890625 -3.15625q-0.875 -1.078125 -2.46875 -1.078125q-1.4375 0 -2.578125 1.109375q-1.125 1.109375 -1.34375 3.125zm15.402313 8.234375q-1.71875 0 -2.859375 -1.015625q-1.125 -1.03125 -1.125 -2.859375q0 -2.234375 2.0 -3.421875q2.0 -1.1875 6.34375 -1.671875q0 -0.859375 -0.234375 -1.640625q-0.234375 -0.796875 -0.84375 -1.28125q-0.59375 -0.5 -1.71875 -0.5q-1.171875 0 -2.21875 0.453125q-1.03125 0.453125 -1.84375 1.015625l-0.890625 -1.609375q0.953125 -0.609375 2.328125 -1.171875q1.390625 -0.578125 3.015625 -0.578125q2.5 0 3.609375 1.53125q1.125 1.515625 1.125 4.0625l0 8.34375l-1.90625 0l-0.1875 -1.625l-0.09375 0q-0.953125 0.78125 -2.09375 1.375q-1.125 0.59375 -2.40625 0.59375zm0.671875 -1.859375q0.96875 0 1.828125 -0.46875q0.875 -0.484375 1.859375 -1.34375l0 -3.78125q-3.390625 0.421875 -4.75 1.265625q-1.34375 0.828125 -1.34375 2.140625q0 1.15625 0.6875 1.671875q0.703125 0.515625 1.71875 0.515625zm12.737061 1.859375q-1.296875 0 -1.875 -0.796875q-0.5625 -0.8125 -0.5625 -2.296875l0 -17.1875l2.296875 0l0 17.359375q0 0.53125 0.1875 0.78125q0.203125 0.234375 0.453125 0.234375q0.109375 0 0.203125 -0.015625q0.109375 -0.015625 0.296875 -0.046875l0.3125 1.734375q-0.21875 0.109375 -0.53125 0.171875q-0.3125 0.0625 -0.78125 0.0625zm4.702545 -0.34375l0 -13.609375l1.90625 0l0.1875 1.96875l0.09375 0q0.890625 -0.984375 1.953125 -1.640625q1.0625 -0.65625 2.265625 -0.65625q1.578125 0 2.453125 0.6875q0.890625 0.671875 1.296875 1.90625q1.078125 -1.140625 2.15625 -1.859375q1.09375 -0.734375 2.328125 -0.734375q2.109375 0 3.125 1.359375q1.015625 1.34375 1.015625 3.953125l0 8.625l-2.296875 0l0 -8.3125q0 -1.90625 -0.609375 -2.765625q-0.609375 -0.875 -1.90625 -0.875q-1.515625 0 -3.40625 2.09375l0 9.859375l-2.296875 0l0 -8.3125q0 -1.90625 -0.625 -2.765625q-0.609375 -0.875 -1.921875 -0.875q-1.515625 0 -3.421875 2.09375l0 9.859375l-2.296875 0z" fill-rule="nonzero"/><path fill="#000000" fill-opacity="0.0" d="m367.36078 110.52523l97.85828 0l0 53.322838l-97.85828 0z" fill-rule="evenodd"/><path fill="#ffffff" d="m378.8764 146.40523l0 -18.375l5.75 0q1.875 0 3.328125 0.5q1.453125 0.484375 2.28125 1.625q0.828125 1.125 0.828125 3.03125q0 2.125 -1.125 3.4375q-1.125 1.296875 -3.015625 1.765625l4.671875 8.015625l-2.640625 0l-4.421875 -7.75l-3.328125 0l0 7.75l-2.328125 0zm2.328125 -9.65625l3.078125 0q2.15625 0 3.296875 -0.875q1.15625 -0.890625 1.15625 -2.6875q0 -1.8125 -1.15625 -2.53125q-1.140625 -0.734375 -3.296875 -0.734375l-3.078125 0l0 6.828125zm18.62082 10.0q-1.828125 0 -3.3125 -0.859375q-1.46875 -0.859375 -2.34375 -2.453125q-0.875 -1.59375 -0.875 -3.8125q0 -2.234375 0.875 -3.828125q0.890625 -1.59375 2.296875 -2.453125q1.40625 -0.875 2.9375 -0.875q2.609375 0 4.015625 1.734375q1.421875 1.734375 1.421875 4.640625q0 0.359375 -0.015625 0.71875q-0.015625 0.34375 -0.078125 0.59375l-9.171875 0q0.140625 2.15625 1.34375 3.453125q1.21875 1.28125 3.1875 1.28125q0.984375 0 1.796875 -0.28125q0.828125 -0.296875 1.59375 -0.78125l0.8125 1.515625q-0.875 0.5625 -1.984375 0.984375q-1.09375 0.421875 -2.5 0.421875zm-4.28125 -8.234375l7.28125 0q0 -2.078125 -0.890625 -3.15625q-0.875 -1.078125 -2.46875 -1.078125q-1.4375 0 -2.578125 1.109375q-1.125 1.109375 -1.34375 3.125zm17.294312 8.234375q-2.546875 0 -4.09375 -1.859375q-1.53125 -1.875 -1.53125 -5.265625q0 -2.203125 0.828125 -3.8125q0.828125 -1.609375 2.1875 -2.46875q1.359375 -0.875 2.890625 -0.875q1.1875 0 2.046875 0.421875q0.875 0.40625 1.765625 1.140625l-0.109375 -2.328125l0 -5.234375l2.328125 0l0 19.9375l-1.90625 0l-0.203125 -1.59375l-0.078125 0q-0.78125 0.78125 -1.859375 1.359375q-1.0625 0.578125 -2.265625 0.578125zm0.515625 -1.9375q1.78125 0 3.46875 -1.875l0 -7.109375q-0.875 -0.796875 -1.671875 -1.109375q-0.796875 -0.328125 -1.640625 -0.328125q-1.078125 0 -1.96875 0.65625q-0.875 0.65625 -1.40625 1.828125q-0.53125 1.15625 -0.53125 2.734375q0 2.421875 0.96875 3.8125q0.984375 1.390625 2.78125 1.390625zm15.680695 1.9375q-1.65625 0 -3.109375 -0.84375q-1.4375 -0.84375 -2.328125 -2.4375q-0.875 -1.59375 -0.875 -3.84375q0 -2.296875 0.875 -3.890625q0.890625 -1.59375 2.328125 -2.421875q1.453125 -0.84375 3.109375 -0.84375q1.671875 0 3.09375 0.84375q1.4375 0.828125 2.3125 2.421875q0.890625 1.59375 0.890625 3.890625q0 2.25 -0.890625 3.84375q-0.875 1.59375 -2.3125 2.4375q-1.421875 0.84375 -3.09375 0.84375zm0 -1.90625q1.765625 0 2.84375 -1.4375q1.078125 -1.453125 1.078125 -3.78125q0 -2.34375 -1.078125 -3.796875q-1.078125 -1.46875 -2.84375 -1.46875q-1.734375 0 -2.828125 1.46875q-1.09375 1.453125 -1.09375 3.796875q0 2.328125 1.09375 3.78125q1.09375 1.4375 2.828125 1.4375zm15.254181 1.90625q-1.796875 0 -3.25 -0.84375q-1.453125 -0.84375 -2.296875 -2.4375q-0.84375 -1.59375 -0.84375 -3.84375q0 -2.296875 0.90625 -3.890625q0.921875 -1.59375 2.421875 -2.421875q1.5 -0.84375 3.234375 -0.84375q1.34375 0 2.296875 0.484375q0.96875 0.46875 1.671875 1.109375l-1.171875 1.5q-0.59375 -0.53125 -1.25 -0.859375q-0.65625 -0.34375 -1.46875 -0.34375q-1.234375 0 -2.203125 0.671875q-0.953125 0.65625 -1.5 1.84375q-0.546875 1.1875 -0.546875 2.75q0 2.328125 1.15625 3.78125q1.15625 1.4375 3.046875 1.4375q0.9375 0 1.75 -0.40625q0.8125 -0.40625 1.4375 -0.96875l1.0 1.53125q-0.921875 0.8125 -2.046875 1.28125q-1.109375 0.46875 -2.34375 0.46875z" fill-rule="nonzero"/></g></svg>